<svg width="44" height="44" viewBox="0 0 44 44" fill="none" xmlns="http://www.w3.org/2000/svg">
<path d="M22 42C33.0457 42 42 33.0457 42 22C42 10.9543 33.0457 2 22 2C10.9543 2 2 10.9543 2 22C2 33.0457 10.9543 42 22 42Z" fill="#BFE3C6"/>
<path d="M23.6903 16.0064C23.6903 16.0064 23.9742 15.8322 24.4322 15.8903C24.8903 15.9483 25.0967 16.1225 25.0967 16.1225" fill="white"/>
<path d="M21.4322 16.0064C21.4322 16.0064 21.1484 15.8322 20.6903 15.8903C20.2322 15.9483 20.0258 16.1225 20.0258 16.1225" fill="white"/>
<path d="M34.4837 35.3805L28.6321 35.0063L30.5353 40.0902C32.1998 39.3031 33.7353 38.2967 35.1095 37.1031C34.774 36.1225 34.4837 35.3805 34.4837 35.3805Z" fill="#F9D2DD"/>
<path d="M9.09021 37.2706C10.4709 38.4383 12.0128 39.4254 13.6838 40.1867L15.6709 34.8706L9.81926 35.2448C9.81281 35.2513 9.4644 36.148 9.09021 37.2706Z" fill="#F9D2DD"/>
<path d="M34.4837 35.3805L28.6321 35.0063L29.2902 36.7354L35.0966 37.0967C34.7805 36.187 34.4837 35.3805 34.4837 35.3805Z" fill="#F9D2DD"/>
<path d="M9.87729 35.0578L15.7289 34.6836L15.0708 36.4126L9.17407 36.9868C9.4902 36.0836 9.87729 35.0578 9.87729 35.0578Z" fill="#F9D2DD"/>
<path d="M29 27.3351C25.0968 25.09 19.0839 25.4254 15.4839 27.0448C12.929 28.1996 10.1226 31.7867 9.09033 35.9932H13.6581L12.9032 39.8126C15.6323 41.2061 18.7161 41.9932 21.9936 41.9932C25.2839 41.9932 28.3806 41.1996 31.1161 39.7932L30.3097 36.4835L34.929 36.0706C34.9355 36.0771 33.871 30.1416 29 27.3351Z" fill="#3D5CFF"/>
<path d="M13.7354 35.9935L14.9096 31.6709L12.1935 35.9999L13.7354 35.9935Z" fill="#224BF4"/>
<path d="M28.6321 31.1289L30.3224 36.4902L31.6966 36.3741L28.6321 31.1289Z" fill="#224BF4"/>
<path d="M13.7418 36.0642C13.7353 36.0642 13.7289 36.0642 13.7224 36.0642C13.6902 36.0578 13.6708 36.0191 13.6773 35.9868L14.9676 31.1997C14.974 31.1675 15.0128 31.1481 15.045 31.1546C15.0773 31.161 15.0966 31.1997 15.0902 31.232L13.7998 36.0191C13.7934 36.0449 13.7676 36.0642 13.7418 36.0642Z" fill="#1F1F39"/>
<path d="M30.2579 36.5353C30.2321 36.5353 30.2063 36.5159 30.1998 36.4901L28.5482 31.1288C28.5353 31.0966 28.5547 31.0643 28.5869 31.0514C28.6192 31.0385 28.6514 31.0578 28.6643 31.0901L30.316 36.4514C30.3289 36.4837 30.3095 36.5159 30.2773 36.5288C30.2708 36.5288 30.2644 36.5353 30.2579 36.5353Z" fill="#1F1F39"/>
<path d="M17.9484 18.2324L17.7419 16.5162C17.7419 16.5162 16.2322 16.5162 15.8258 15.8582C15.4193 15.2065 16.0129 14.7291 16.0129 14.7291C16.0129 14.7291 15.1935 13.6453 15.6258 12.6517C16.1355 11.484 17.329 11.7291 17.329 11.7291C17.329 11.7291 16.458 10.1872 17.5226 9.03235C18.8258 7.61299 21.0064 9.03235 21.0064 9.03235C21.0064 9.03235 21.1484 8.10976 22.0968 8.10976C23.0387 8.10976 23.0387 8.67751 23.0387 8.67751C23.0387 8.67751 23.8839 7.53557 25.3613 7.96783C27.5355 8.60654 27.1613 11.0194 27.1613 11.0194C27.1613 11.0194 28.0322 10.8065 28.3226 11.8001C28.6129 12.7936 27.6709 13.1485 27.6709 13.1485C27.6709 13.1485 28.5484 13.0065 28.7677 13.7162C29.0967 14.7807 28.1871 15.3485 28.1871 15.3485L27.6774 17.8323L17.9484 18.2324Z" fill="#1F1F39"/>
<path d="M18.1935 16.5801C18.1935 16.5801 17.1097 15.8124 16.058 16.2963C15.0064 16.7801 14.8968 18.2382 15.6903 19.1543C16.4839 20.0704 18.4839 19.8575 18.4839 19.8575L18.1935 16.5801Z" fill="#F9D2DD"/>
<path d="M26.7742 16.5349C26.7742 16.5349 27.6065 15.8124 28.6646 16.2962C29.7226 16.7801 29.8259 18.2382 29.0323 19.1543C28.2388 20.0704 26.2388 19.8575 26.2388 19.8575L26.7742 16.5349Z" fill="#F9D2DD"/>
<path d="M26.8838 19.2579C26.8387 19.2579 26.8064 19.2192 26.8064 19.1804C26.8064 19.1611 26.8129 18.774 27.2387 18.1159C27.6709 17.4514 28.4645 17.232 28.4967 17.2191C28.5419 17.2062 28.5806 17.2321 28.5935 17.2772C28.6064 17.3224 28.5806 17.3611 28.5354 17.374C28.529 17.374 27.7677 17.5933 27.3677 18.1998C26.9677 18.8127 26.9612 19.174 26.9612 19.1804C26.9612 19.2192 26.929 19.2579 26.8838 19.2579Z" fill="#1F1F39"/>
<path d="M18.1936 19.2575C18.1484 19.2575 18.1161 19.2188 18.1161 19.1801C18.1161 19.1801 18.1097 18.8123 17.7097 18.1994C17.3097 17.5865 16.5484 17.3736 16.5419 17.3736C16.4968 17.3607 16.4774 17.3155 16.4839 17.2768C16.4903 17.2381 16.5419 17.2123 16.5807 17.2188C16.6129 17.2252 17.4065 17.451 17.8387 18.1155C18.271 18.7736 18.271 19.1672 18.271 19.1801C18.271 19.2188 18.2387 19.2575 18.1936 19.2575Z" fill="#1F1F39"/>
<path d="M18.3354 19.8512C18.7225 21.7673 20.1677 22.8125 20.1677 22.8125L19.9032 26.477C19.9032 26.477 20.2709 27.2834 22.2193 27.2834C24.329 27.2834 24.9096 26.477 24.9096 26.477L24.8064 22.8706C24.8064 22.8706 26.1225 22.6576 26.7548 20.2834C27.3871 17.9157 27.0709 15.8125 27.0709 15.8125C27.0709 15.8125 23.9612 16.2964 22.9096 15.006C21.858 13.7157 20.8 12.4189 19.2709 13.0641C17.7419 13.7093 17.9354 17.8705 18.3354 19.8512Z" fill="#F9D2DD"/>
<path d="M20.8516 17.8704C21.1153 17.8704 21.329 17.6162 21.329 17.3026C21.329 16.9891 21.1153 16.7349 20.8516 16.7349C20.5879 16.7349 20.3741 16.9891 20.3741 17.3026C20.3741 17.6162 20.5879 17.8704 20.8516 17.8704Z" fill="#1F1F39"/>
<path d="M24.329 17.8704C24.5926 17.8704 24.8064 17.6162 24.8064 17.3026C24.8064 16.9891 24.5926 16.7349 24.329 16.7349C24.0653 16.7349 23.8516 16.9891 23.8516 17.3026C23.8516 17.6162 24.0653 17.8704 24.329 17.8704Z" fill="#1F1F39"/>
<path d="M22.3548 16.3867C22.3548 16.3867 22.0645 17.7609 22.2258 18.0835C22.3871 18.4061 22.8064 18.2448 22.8064 18.2448C22.8064 18.2448 22.3871 18.1351 22.3871 17.8125C22.3871 17.49 22.3548 16.3867 22.3548 16.3867Z" fill="#1F1F39"/>
<path d="M20.1677 22.8125C20.1741 23.1415 20.0515 25.3544 20.0193 25.4835C20.0515 25.477 23.5096 24.1351 24.1612 23.5222C24.1612 23.148 24.1742 22.8706 24.1742 22.8706C24.1742 22.8706 23.5419 23.2448 22.0129 23.1931C21.3032 23.1673 20.5354 23.0319 20.1677 22.8125Z" fill="#F9D2DD"/>
<path d="M25.2 19.2703C25.7665 19.2703 26.2258 18.9815 26.2258 18.6251C26.2258 18.2688 25.7665 17.98 25.2 17.98C24.6335 17.98 24.1742 18.2688 24.1742 18.6251C24.1742 18.9815 24.6335 19.2703 25.2 19.2703Z" fill="#F9D2DD"/>
<path d="M19.7742 19.2703C20.3408 19.2703 20.8 18.9815 20.8 18.6251C20.8 18.2688 20.3408 17.98 19.7742 17.98C19.2077 17.98 18.7484 18.2688 18.7484 18.6251C18.7484 18.9815 19.2077 19.2703 19.7742 19.2703Z" fill="#F9D2DD"/>
<path d="M21.9354 19.3547C21.9354 19.3547 22.3225 19.4838 22.5806 19.4193C22.8387 19.3547 23.3548 18.9676 23.3548 18.9676C23.3548 18.9676 23.4838 18.9031 23.5484 18.9676C23.6129 19.0322 23.2 19.7676 22.8387 19.8709C22.3871 19.9999 22.0645 19.8063 21.8709 19.5483C21.6774 19.2902 21.9354 19.3547 21.9354 19.3547Z" fill="white"/>
<path d="M18.2581 19.7417C18.2581 19.7417 19.1613 21.2256 20.129 21.4836C21.0968 21.7417 20.9161 22.1933 21.3355 21.9998C21.7613 21.8062 21.8774 21.4191 22.729 21.5482C23.5742 21.6772 23.3935 22.1288 23.9355 22.0643C24.4774 21.9998 25.3871 21.3546 25.8064 20.9675C26.2258 20.5804 26.8322 19.9352 26.8322 19.9352C26.8322 19.9352 26.4452 22.6449 24.2903 23.2901C22.671 23.774 20.3742 23.5482 19.3484 22.0643C18.3226 20.5804 18.2581 19.7417 18.2581 19.7417Z" fill="#1F1F39"/>
<path d="M21.1613 21.1739C21.1484 21.1739 21.129 21.1675 21.1161 21.161C21.0774 21.1352 21.071 21.09 21.0968 21.0513L21.3549 20.6642C21.3807 20.6255 21.4258 20.6191 21.4645 20.6449C21.5033 20.6707 21.5097 20.7158 21.4839 20.7546L21.2258 21.1416C21.2129 21.161 21.1871 21.1739 21.1613 21.1739Z" fill="#1F1F39"/>
<path d="M19.8064 20.922C19.7806 20.922 19.7548 20.9091 19.7419 20.8898C19.7161 20.8511 19.729 20.8059 19.7612 20.7801L20.1483 20.522C20.187 20.4962 20.2322 20.5091 20.258 20.5414C20.2838 20.5801 20.2709 20.6253 20.2387 20.6511L19.8516 20.9091C19.8387 20.9156 19.8258 20.922 19.8064 20.922Z" fill="#1F1F39"/>
<path d="M22.5806 21.3031C22.5354 21.3031 22.5032 21.2644 22.5032 21.2257V20.9031C22.5032 20.8579 22.5419 20.8257 22.5806 20.8257C22.6193 20.8257 22.658 20.8644 22.658 20.9031V21.2257C22.658 21.2708 22.6258 21.3031 22.5806 21.3031Z" fill="#1F1F39"/>
<path d="M23.8064 21.1095C23.7742 21.1095 23.7419 21.0901 23.729 21.0579L23.6 20.7353C23.5806 20.6966 23.6064 20.645 23.6451 20.6321C23.6838 20.6127 23.7355 20.6385 23.7484 20.6772L23.8774 20.9998C23.8968 21.0385 23.8709 21.0901 23.8322 21.103C23.8258 21.1095 23.8193 21.1095 23.8064 21.1095Z" fill="#1F1F39"/>
<path d="M25.2258 20.9804C25.2129 20.9804 25.2 20.9739 25.1871 20.9675L24.7355 20.7094C24.6968 20.6901 24.6839 20.6385 24.7032 20.5997C24.7226 20.561 24.7742 20.5481 24.8129 20.5675L25.2645 20.8256C25.3032 20.8449 25.3161 20.8965 25.2968 20.9352C25.2774 20.9675 25.2516 20.9804 25.2258 20.9804Z" fill="#1F1F39"/>
<g opacity="0.5919">
<g opacity="0.5919">
<path opacity="0.5919" d="M18.3031 30.0194C18.3289 30.1484 18.3612 30.2904 18.4773 30.3742C18.5934 30.4516 18.7483 30.4387 18.8838 30.4065C19.0515 30.3613 19.2257 30.2774 19.3935 30.3678C19.5418 30.4452 19.6128 30.6194 19.5741 30.7807C19.5612 30.8387 19.6515 30.8645 19.6644 30.8065C19.7418 30.4903 19.4838 30.2 19.1612 30.2387C18.9934 30.2581 18.8322 30.3549 18.658 30.342C18.4709 30.3291 18.4257 30.1613 18.3935 30C18.3806 29.9291 18.2902 29.9549 18.3031 30.0194Z" fill="#BFE3C6"/>
<path opacity="0.5919" d="M17.5612 33.1095C17.4966 33.2579 17.5031 33.432 17.5676 33.5804C17.6386 33.7353 17.7612 33.8256 17.9031 33.9159C18.0515 34.0062 18.2063 34.1224 18.1676 34.3159C18.1224 34.5224 17.9225 34.6385 17.7547 34.7353C17.7031 34.7675 17.7482 34.8514 17.8063 34.8191C17.9741 34.7224 18.1483 34.6127 18.2321 34.432C18.3031 34.2772 18.2773 34.1095 18.1676 33.9869C18.0515 33.8643 17.8837 33.8062 17.7676 33.6901C17.6192 33.5417 17.5805 33.3159 17.6644 33.1288C17.6773 33.0772 17.5805 33.0579 17.5612 33.1095Z" fill="#BFE3C6"/>
<path opacity="0.5919" d="M12.5805 32.3098C12.5483 32.1743 12.5225 32.0324 12.5225 31.8969C12.516 31.7678 12.5289 31.6517 12.6515 31.5808C12.8967 31.4259 13.1418 31.6517 13.3805 31.6711C13.5999 31.6904 13.7418 31.4969 13.7999 31.3033C13.8515 31.1098 13.8257 30.8969 13.716 30.7291C13.6838 30.6775 13.5999 30.7227 13.6321 30.7808C13.7547 30.9679 13.7612 31.2195 13.6451 31.413C13.5676 31.542 13.458 31.6001 13.316 31.555C13.1934 31.5227 13.0902 31.4582 12.9676 31.4388C12.7805 31.4066 12.5548 31.4517 12.4644 31.6453C12.4193 31.742 12.4257 31.8517 12.4322 31.9549C12.4386 32.084 12.458 32.213 12.4902 32.3356C12.5031 32.3937 12.5935 32.3679 12.5805 32.3098Z" fill="#BFE3C6"/>
<path opacity="0.5919" d="M15.7161 38.6388C15.6903 38.5807 15.7419 38.5291 15.787 38.5033C15.8387 38.4775 15.8967 38.4969 15.9483 38.5227C16.0451 38.5743 16.1225 38.6646 16.2064 38.7356C16.3741 38.871 16.5806 38.9743 16.7935 39.0001C17.1741 39.0388 17.587 38.742 17.5161 38.3291C17.5032 38.2711 17.4128 38.2969 17.4257 38.3549C17.4645 38.5807 17.2902 38.7936 17.0838 38.871C16.858 38.9549 16.6064 38.884 16.4064 38.7614C16.3031 38.6969 16.2128 38.6194 16.1225 38.5356C16.0515 38.4711 15.9677 38.413 15.8774 38.4001C15.7225 38.3807 15.5548 38.5356 15.6322 38.6904C15.658 38.742 15.7419 38.6968 15.7161 38.6388Z" fill="#BFE3C6"/>
<path opacity="0.5919" d="M22.587 36.7162C22.458 36.8581 22.3483 37.0388 22.3483 37.2388C22.3483 37.4323 22.4709 37.5743 22.6192 37.6839C22.7805 37.8065 23.0128 37.9162 23.0515 38.1356C23.0902 38.3807 22.8063 38.4323 22.6257 38.413C22.5612 38.4065 22.5676 38.5033 22.6257 38.5097C22.7934 38.5291 23.0063 38.4968 23.1031 38.342C23.2128 38.1678 23.116 37.9678 22.987 37.8388C22.8386 37.6904 22.6257 37.6194 22.5096 37.4388C22.3676 37.2194 22.5031 36.9549 22.658 36.7807C22.6967 36.742 22.6257 36.671 22.587 36.7162Z" fill="#BFE3C6"/>
<path opacity="0.5919" d="M28.1805 38.1099C27.9999 38.1163 27.8451 38.2195 27.7548 38.3744C27.6515 38.5486 27.6773 38.7357 27.7741 38.9099C27.8257 39.0066 27.8967 39.1034 27.9096 39.2195C27.9225 39.3292 27.8902 39.4389 27.8257 39.5228C27.6838 39.7099 27.4064 39.7163 27.2386 39.555C27.1935 39.5099 27.1225 39.5808 27.1677 39.626C27.316 39.7615 27.5354 39.8066 27.7225 39.7228C27.9032 39.6389 28.0193 39.4389 28.0064 39.2454C27.9935 39.0195 27.7806 38.8583 27.7806 38.626C27.7806 38.4131 27.9612 38.2131 28.1805 38.2066C28.2451 38.2066 28.2451 38.1099 28.1805 38.1099Z" fill="#BFE3C6"/>
<path opacity="0.5919" d="M25.2387 28.6516C24.8903 28.7613 24.7871 29.1677 24.9096 29.4839C24.9806 29.671 25.1161 29.7936 25.2451 29.9419C25.3225 30.0258 25.3871 30.1484 25.2645 30.2258C25.1612 30.2903 25.0258 30.3032 24.9096 30.2968C24.8451 30.2968 24.8451 30.3936 24.9096 30.3936C25.0709 30.4 25.3548 30.3677 25.4193 30.1936C25.4838 30.0258 25.3161 29.8774 25.2128 29.7677C25.0645 29.6129 24.9483 29.4064 24.9548 29.1871C24.9612 28.9935 25.0774 28.8065 25.2645 28.7484C25.329 28.7226 25.3032 28.6323 25.2387 28.6516Z" fill="#BFE3C6"/>
<path opacity="0.5919" d="M24.2903 33.3291C24.4258 33.1807 24.658 33.1485 24.8322 33.2452C25.0258 33.3485 25.0645 33.5872 25.129 33.7743C25.1935 33.9614 25.2967 34.1162 25.4903 34.1872C25.6709 34.2517 25.8967 34.2581 26.0774 34.1872C26.2967 34.0968 26.458 33.9033 26.5483 33.6775C26.5742 33.6194 26.4774 33.5936 26.458 33.6517C26.3742 33.8581 26.2129 34.0452 25.9935 34.1162C25.8 34.1743 25.529 34.142 25.3741 34.0001C25.2193 33.8581 25.2064 33.6259 25.129 33.4388C25.058 33.2775 24.9419 33.1485 24.7677 33.1033C24.5806 33.0581 24.3677 33.1097 24.2322 33.2517C24.1806 33.3097 24.2451 33.3743 24.2903 33.3291Z" fill="#BFE3C6"/>
<path opacity="0.5919" d="M31.1161 31.2452C30.9741 31.2 30.8386 31.2968 30.7741 31.4194C30.6967 31.5807 30.7483 31.7613 30.7806 31.9226C30.8128 32.0903 30.8193 32.2839 30.6516 32.3807C30.4967 32.4645 30.3161 32.4 30.2193 32.2645C30.187 32.2129 30.1032 32.2645 30.1354 32.3161C30.2258 32.4452 30.3677 32.5355 30.529 32.5226C30.6838 32.5097 30.8258 32.4065 30.8774 32.2581C30.9354 32.0774 30.8645 31.8903 30.8386 31.7097C30.8257 31.6194 30.8258 31.5161 30.8838 31.4323C30.929 31.3678 31.0064 31.3226 31.0903 31.3484C31.1483 31.3549 31.1741 31.2645 31.1161 31.2452Z" fill="#BFE3C6"/>
</g>
<path opacity="0.5919" d="M34.698 35.158L29.9945 35.6479L30.0012 35.7121L34.7047 35.2222L34.698 35.158Z" fill="#BFE3C6"/>
<path opacity="0.5919" d="M13.9837 34.917L9.32654 35.0171L9.32792 35.0816L13.9851 34.9815L13.9837 34.917Z" fill="#BFE3C6"/>
</g>
<rect x="1.25" y="1.25" width="41.5" height="41.5" rx="20.75" stroke="white" stroke-width="1.5"/>
</svg>
