<svg width="28" height="28" viewBox="0 0 28 28" fill="none" xmlns="http://www.w3.org/2000/svg">
<rect width="28" height="28" rx="4" fill="#2563EB"/>
<path d="M21.3 4.3584L18.41 7.2484" stroke="#7D8CA8" stroke-opacity="0.988" stroke-width="0.08"/>
<path d="M18.41 7.24854L18.4016 7.25013" stroke="#7D8FA9" stroke-opacity="0.961" stroke-width="0.08"/>
<path d="M7.25838 12.6699C7.24745 12.6718 7.23385 12.681 7.21758 12.6975C6.29972 13.6135 5.38332 14.531 4.46838 15.4499" stroke="#126394" stroke-opacity="0.961" stroke-width="0.08"/>
<path d="M24.8048 5.92578C23.3992 7.32391 22.2534 8.46791 21.3676 9.35778C21.3606 9.36471 21.3557 9.37485 21.3528 9.38818" stroke="#67B9DA" stroke-width="0.08"/>
<path d="M21.3 4.35847L18.41 7.24847L18.4048 7.22927C18.4033 7.22369 18.4033 7.21769 18.4049 7.21186C18.4065 7.20603 18.4097 7.20058 18.414 7.19607L20.7916 4.82007L21.0952 4.52207C21.1 4.51739 21.1033 4.51161 21.1045 4.50565C21.1057 4.49969 21.1049 4.49392 21.102 4.48927C21.0932 4.47541 21.0808 4.47634 21.0648 4.49207C21.0568 4.49981 21.0534 4.49834 21.0544 4.48767C21.0584 4.44714 21.0443 4.43114 21.012 4.43967C21.0062 4.44128 21.0001 4.44158 20.9942 4.44054C20.9883 4.4395 20.9828 4.43715 20.978 4.43367C20.9463 4.40967 20.9094 4.40074 20.8672 4.40687C20.8547 4.40865 20.842 4.40549 20.832 4.39807C20.7947 4.37087 20.7534 4.35741 20.708 4.35767C20.6954 4.35792 20.6831 4.3535 20.6736 4.34527C20.6323 4.30954 20.5842 4.29101 20.5292 4.28967C20.5174 4.28968 20.5052 4.28501 20.4948 4.27647C20.4676 4.25407 20.4355 4.24421 20.3984 4.24687C20.3925 4.24724 20.3865 4.2462 20.3809 4.24385C20.3754 4.24149 20.3704 4.23787 20.3664 4.23327C20.344 4.20794 20.3148 4.19927 20.2788 4.20727C20.2736 4.20845 20.2681 4.20802 20.263 4.20603C20.2578 4.20404 20.2534 4.20058 20.25 4.19607C20.2351 4.17527 20.218 4.17114 20.1988 4.18367C20.1943 4.18679 20.1889 4.1884 20.1835 4.18826C20.1781 4.18811 20.1729 4.18622 20.1688 4.18287C20.1328 4.15274 20.092 4.14301 20.0464 4.15367C20.0414 4.15477 20.036 4.15436 20.0306 4.15247C20.0252 4.15058 19.9616 4.28635 19.9572 4.28195C19.9431 4.26808 19.982 4.12314 19.9572 4.12527C19.9394 4.14047 19.9296 4.13581 19.928 4.11127C19.9277 4.10598 19.9255 4.101 19.9219 4.09736C19.9182 4.09372 19.9134 4.09168 19.9084 4.09167C19.7759 4.09327 19.6731 4.07341 19.6 4.03207C19.5299 3.99261 19.4668 3.97474 19.4108 3.97847C19.3976 3.97952 19.3848 3.97672 19.3744 3.97047C19.2827 3.91661 19.184 3.89874 19.0784 3.91687C19.0735 3.91776 19.0685 3.91665 19.0642 3.91375C19.06 3.91085 19.0569 3.90639 19.0556 3.90127C19.0506 3.88074 19.0408 3.87634 19.0264 3.88807C19.022 3.89148 19.0167 3.89342 19.0114 3.89356C19.0061 3.89371 19.0011 3.89205 18.9972 3.88887C18.9255 3.82781 18.8414 3.79714 18.7448 3.79687C18.7425 3.79677 18.7402 3.79596 18.7383 3.79453C18.7364 3.79311 18.7349 3.79114 18.734 3.78887L18.7316 3.78167C18.7301 3.77717 18.7273 3.77327 18.7235 3.77054C18.7198 3.76781 18.7153 3.76638 18.7108 3.76647C18.612 3.76847 18.5188 3.73287 18.4184 3.72567C18.3635 3.72194 18.3107 3.70941 18.26 3.68807C18.2531 3.68541 18.2402 3.68354 18.2212 3.68247L18.0628 3.67367C18.0592 3.67348 18.0543 3.67151 18.0487 3.66795C18.043 3.66438 18.0368 3.65934 18.0304 3.65327C18.0187 3.64207 18.007 3.63967 17.9952 3.64607C17.9838 3.65232 17.9718 3.65512 17.9608 3.65407L17.872 3.64607C17.8672 3.64561 17.8626 3.64364 17.8587 3.64039C17.8547 3.63714 17.8516 3.63273 17.8496 3.62767C17.8404 3.60287 17.4276 3.55847 17.3692 3.55727C17.357 3.55701 17.3443 3.5527 17.3328 3.54487C17.2806 3.51021 17.2243 3.50394 17.164 3.52607C17.1489 3.53145 17.1352 3.53288 17.1256 3.53007L17.0092 3.49407C16.994 3.48927 16.9814 3.48767 16.9712 3.48927C16.8758 3.50287 16.7831 3.49367 16.6932 3.46167C16.6316 3.43967 16.584 3.44767 16.522 3.44527C16.5171 3.44516 16.5117 3.44365 16.506 3.44083C16.5004 3.43802 16.4947 3.43395 16.4892 3.42887C16.4536 3.39607 16.0228 3.42967 16.0136 3.38887C16.0124 3.38333 16.0097 3.37837 16.006 3.37476C16.0023 3.37114 15.9978 3.36907 15.9932 3.36887L15.5396 3.35007C15.5377 3.34998 15.5359 3.34918 15.5344 3.3478C15.533 3.34642 15.532 3.34454 15.5316 3.34247L15.5304 3.33567C15.5298 3.33222 15.5277 3.32917 15.5246 3.32716C15.5214 3.32514 15.5175 3.32432 15.5136 3.32487C15.4787 3.32967 15.444 3.32661 15.4096 3.31567C15.4064 3.31461 15.4031 3.31421 15.3996 3.31447C15.2535 3.32434 15.1127 3.32341 14.9772 3.31167C14.918 3.30647 14.832 3.33847 14.7668 3.33567C14.4948 3.32234 14.2226 3.31927 13.95 3.32647C13.8532 3.32887 13.636 3.32781 13.2984 3.32327C13.297 3.32325 13.2957 3.3227 13.2945 3.32169C13.2933 3.32068 13.2925 3.31927 13.292 3.31767L13.2904 3.31127C13.2902 3.30999 13.2895 3.3089 13.2885 3.30808C13.2874 3.30726 13.2861 3.30674 13.2845 3.30659C13.2829 3.30643 13.2812 3.30662 13.2796 3.30716C13.2779 3.3077 13.2762 3.30857 13.2748 3.30967C13.2368 3.33967 12.8308 3.32727 12.7556 3.32407C12.7547 3.3241 12.7537 3.32442 12.7529 3.32499C12.7522 3.32556 12.7516 3.32636 12.7512 3.32727L12.7496 3.33047C12.749 3.33233 12.7477 3.33392 12.746 3.335C12.7444 3.33608 12.7424 3.33659 12.7404 3.33647L12.2604 3.32327C12.2487 3.32302 12.2361 3.32724 12.2244 3.33527C12.1204 3.40847 12.0536 3.33207 11.9664 3.38007C11.961 3.38306 11.9549 3.38475 11.9488 3.38503C11.9427 3.38531 11.9367 3.38416 11.9312 3.38167C11.8806 3.35927 11.8266 3.35341 11.7692 3.36407C11.764 3.36507 11.7592 3.368 11.7556 3.37241C11.7519 3.37682 11.7497 3.38246 11.7492 3.38847C11.7428 3.47567 11.6816 3.41087 11.6412 3.40567C11.5234 3.39021 11.4151 3.41194 11.3164 3.47087C11.3114 3.47386 11.3057 3.47563 11.2996 3.47605C11.2935 3.47646 11.2872 3.47552 11.2812 3.47327C11.234 3.45594 11.174 3.45874 11.1012 3.48167C11.0428 3.49981 10.9512 3.49887 10.8264 3.47887C10.8211 3.47799 10.8154 3.47862 10.8097 3.48071C10.804 3.48279 10.7985 3.48628 10.7936 3.49087L10.766 3.51727C10.7618 3.52143 10.7564 3.52465 10.7503 3.52671C10.7441 3.52878 10.7374 3.52965 10.7304 3.52927C10.6992 3.52807 10.5368 3.49967 10.5108 3.54767C10.5078 3.55313 10.5036 3.55768 10.4988 3.56085C10.4939 3.56402 10.4885 3.56568 10.4832 3.56567L10.3392 3.56767C10.3295 3.5677 10.3173 3.57301 10.3052 3.58247C10.2208 3.64807 10.146 3.55247 10.0508 3.64047C10.0183 3.67061 9.98137 3.67381 9.94004 3.65007C9.90324 3.62874 9.87271 3.63274 9.84844 3.66207C9.84362 3.66788 9.83827 3.67262 9.83284 3.67589C9.82742 3.67917 9.82207 3.68087 9.81724 3.68087L9.64964 3.68047C9.63835 3.68047 9.62688 3.68534 9.61764 3.69407L9.58724 3.72207C9.58341 3.72566 9.57806 3.72822 9.57165 3.72955C9.56524 3.73087 9.55796 3.73091 9.55044 3.72967C9.43017 3.71074 9.32297 3.73381 9.22884 3.79887C9.21858 3.80581 9.20557 3.80852 9.19244 3.80647C9.13404 3.79741 9.07991 3.80647 9.03004 3.83367C9.01777 3.84034 9.00537 3.84407 8.99284 3.84487C8.87764 3.85287 8.77004 3.88754 8.67004 3.94887C8.66912 3.94944 8.66805 3.94976 8.66692 3.9498C8.66579 3.94985 8.6646 3.94962 8.66344 3.94913C8.66228 3.94865 8.66117 3.94791 8.66017 3.94697C8.65918 3.94603 8.65831 3.94491 8.65764 3.94367L8.65244 3.93327C8.65143 3.93128 8.64983 3.92973 8.64778 3.92874C8.64572 3.92775 8.64328 3.92736 8.64064 3.9276C8.63801 3.92783 8.63527 3.92869 8.63266 3.9301C8.63004 3.9315 8.62764 3.93342 8.62564 3.93567C8.55804 4.01127 8.48524 3.93007 8.43244 3.99487C8.42857 3.99946 8.42368 4.00293 8.41831 4.00491C8.41295 4.00689 8.40732 4.00729 8.40204 4.00607C8.36871 3.99781 8.33631 3.99967 8.30484 4.01167C8.30163 4.01283 8.29806 4.01296 8.29459 4.01204C8.29111 4.01111 8.28786 4.00918 8.28524 4.00647C8.27324 3.99447 8.26791 4.00061 8.26924 4.02487C8.26957 4.02965 8.26825 4.03436 8.26552 4.03812C8.2628 4.04188 8.25885 4.04442 8.25444 4.04527C8.22564 4.05114 8.19831 4.04981 8.17244 4.04127C8.16699 4.03938 8.16112 4.03914 8.15556 4.04056C8.15001 4.04198 8.14502 4.04502 8.14124 4.04927C8.10897 4.08527 8.06831 4.09994 8.01924 4.09327C8.01356 4.09252 8.00768 4.09325 8.00211 4.09541C7.99653 4.09757 7.99143 4.10109 7.98724 4.10567C7.96777 4.12621 7.94204 4.13527 7.91004 4.13287C7.90446 4.13238 7.89872 4.13336 7.8933 4.13573C7.88787 4.13809 7.88292 4.14178 7.87884 4.14647C7.86684 4.16034 7.85657 4.15714 7.84804 4.13687C7.84733 4.13524 7.8462 4.13381 7.84478 4.13274C7.84336 4.13166 7.84168 4.13097 7.83991 4.13073C7.83815 4.13049 7.83635 4.13071 7.83469 4.13136C7.83303 4.13202 7.83157 4.13309 7.83044 4.13447C7.80644 4.16354 7.77551 4.17407 7.73764 4.16607C7.73182 4.16485 7.72582 4.16516 7.72026 4.16699C7.71469 4.16882 7.70978 4.1721 7.70604 4.17647C7.66897 4.21967 7.62311 4.23247 7.56844 4.21487C7.56262 4.21306 7.5565 4.21277 7.55072 4.21404C7.54495 4.21531 7.53974 4.21808 7.53564 4.22207C7.48044 4.27461 7.41311 4.29727 7.33364 4.29007C7.32961 4.28972 7.32548 4.29071 7.32178 4.29291C7.31808 4.29512 7.31497 4.29845 7.31284 4.30247C7.30537 4.31661 7.29777 4.31541 7.29004 4.29887C7.28805 4.29443 7.28463 4.29085 7.28047 4.28884C7.27632 4.28684 7.27173 4.28656 7.26764 4.28807C7.18444 4.31847 7.14244 4.39007 7.05004 4.40567C7.03774 4.40777 7.02598 4.41344 7.01604 4.42207C6.97844 4.45461 6.93697 4.46154 6.89164 4.44287C6.88694 4.44088 6.88165 4.44071 6.87678 4.44241C6.87191 4.4441 6.86781 4.44754 6.86524 4.45207C6.84604 4.48701 6.81364 4.49967 6.76804 4.49007C6.76544 4.48949 6.76269 4.48984 6.76023 4.49107C6.75776 4.4923 6.75573 4.49434 6.75444 4.49687L6.75004 4.50647C6.74769 4.51121 6.74354 4.51502 6.7382 4.51733C6.73287 4.51963 6.72664 4.52032 6.72044 4.51927C6.66897 4.51021 6.62697 4.52154 6.59444 4.55327C6.58596 4.56173 6.57407 4.5666 6.56124 4.56687C6.53831 4.56714 6.51977 4.57527 6.50564 4.59127C6.50146 4.59608 6.49646 4.59985 6.49109 4.60222C6.48571 4.60459 6.48013 4.6055 6.47484 4.60487C6.39644 4.59647 6.25924 4.67887 6.18684 4.71447C6.17846 4.71866 6.16905 4.72046 6.15964 4.71967C6.08004 4.71287 5.99164 4.79567 5.90044 4.80927C5.8884 4.81079 5.87706 4.8174 5.86884 4.82767C5.84684 4.85407 5.81724 4.87407 5.78084 4.87967C5.59324 4.90807 5.47084 5.01687 5.29084 5.04847C5.28131 5.05001 5.26989 5.05687 5.25884 5.06767C5.25137 5.07487 5.24257 5.07927 5.23244 5.08087C5.17764 5.08927 5.13364 5.11927 5.10204 5.16367C5.09829 5.16881 5.09359 5.17304 5.08827 5.17609C5.08294 5.17913 5.07713 5.1809 5.07124 5.18127C5.01471 5.18421 4.96177 5.19861 4.91244 5.22447C4.85617 5.25381 4.82617 5.26927 4.82244 5.27087C4.74537 5.30607 4.67137 5.34741 4.60044 5.39487C4.59217 5.40047 4.58017 5.40407 4.56444 5.40567C4.54737 5.40701 4.53244 5.41447 4.51964 5.42807C4.47191 5.47981 4.40937 5.51061 4.33204 5.52047C4.3269 5.52103 4.32208 5.52348 4.31837 5.5274C4.31467 5.53132 4.31229 5.5365 4.31164 5.54207C4.30817 5.57034 4.29311 5.58261 4.26644 5.57887C4.25792 5.57764 4.25003 5.57714 4.24342 5.57742C4.23681 5.5777 4.23167 5.57874 4.22844 5.58047L4.12284 5.63727C4.10965 5.64452 4.09705 5.64806 4.08724 5.64727C4.01764 5.64301 3.95991 5.66514 3.91404 5.71367C3.91004 5.71794 3.905 5.72129 3.89927 5.7235C3.89354 5.72571 3.88725 5.72672 3.88084 5.72647L3.84764 5.72527C3.8426 5.72517 3.83728 5.72677 3.83217 5.72992C3.82706 5.73307 3.82233 5.73766 3.81844 5.74327C3.80697 5.75954 3.79164 5.76701 3.77244 5.76567C3.76794 5.76546 3.7635 5.76701 3.75996 5.77003C3.75642 5.77306 3.75403 5.77734 3.75324 5.78207C3.74884 5.80807 3.69404 5.80967 3.67724 5.81567C3.57804 5.85061 3.48844 5.90341 3.40844 5.97407C3.4054 5.97686 3.40189 5.97882 3.39837 5.97968C3.39486 5.98054 3.39153 5.98026 3.38884 5.97887C3.38484 5.97674 3.38177 5.97381 3.37964 5.97007C3.37865 5.96824 3.37736 5.96657 3.37586 5.96519C3.37435 5.96382 3.37268 5.96276 3.37095 5.96211C3.36923 5.96146 3.36749 5.96122 3.36588 5.96142C3.36427 5.96163 3.36282 5.96226 3.36164 5.96327L3.27604 6.03487C3.26671 6.04261 3.26231 6.04061 3.26284 6.02887C3.26497 5.98941 3.25457 5.97221 3.23164 5.97727C3.22915 5.97777 3.22659 5.97783 3.22413 5.97743C3.22167 5.97704 3.21938 5.9762 3.2174 5.97499C3.21542 5.97377 3.21381 5.9722 3.21268 5.97039C3.21155 5.96857 3.21092 5.96655 3.21084 5.96447L3.20844 5.92007C8.74244 2.86527 15.3132 2.28007 21.3 4.35847Z" fill="#172B4D"/>
<path d="M20.7916 4.82007L20.7736 4.78847C20.7712 4.78462 20.7708 4.77928 20.7723 4.77327C20.7739 4.76727 20.7775 4.76094 20.7824 4.75527C20.796 4.74007 20.8051 4.72274 20.8096 4.70327C20.811 4.69806 20.8138 4.69315 20.8177 4.68891C20.8217 4.68468 20.8267 4.68124 20.8324 4.67887C20.8554 4.66981 20.8622 4.64861 20.8528 4.61527C20.8494 4.60306 20.8397 4.59227 20.8252 4.58466C20.8107 4.57704 20.7922 4.57303 20.7728 4.57327C20.7208 4.57447 20.5656 4.56007 20.5356 4.50847C20.5327 4.50348 20.5287 4.49934 20.524 4.49646C20.5193 4.49358 20.5141 4.49207 20.5088 4.49207C20.4838 4.49207 20.4658 4.48114 20.4548 4.45927C20.4527 4.45462 20.4489 4.45092 20.4441 4.44886C20.4394 4.4468 20.4341 4.44652 20.4292 4.44807C20.4036 4.45607 20.3832 4.44981 20.368 4.42927C20.3642 4.42402 20.3595 4.41971 20.3543 4.41666C20.3491 4.41361 20.3435 4.41191 20.338 4.41167C20.2916 4.41007 20.2487 4.39701 20.2092 4.37247C20.1984 4.36577 20.1854 4.36335 20.1728 4.36567C20.112 4.37661 20.0714 4.35581 20.0508 4.30327C20.0501 4.30128 20.0488 4.29948 20.0473 4.29804C20.0457 4.29659 20.0438 4.29553 20.0418 4.29495C20.0398 4.29436 20.0377 4.29427 20.0356 4.29467C20.0336 4.29508 20.0317 4.29597 20.03 4.29727C19.9887 4.33167 19.9439 4.33607 19.8956 4.31047C19.8882 4.30674 19.8758 4.30314 19.8584 4.29967L19.7896 4.28567C19.7865 4.28503 19.7825 4.28234 19.778 4.27789C19.7736 4.27345 19.7689 4.26743 19.7644 4.26047C19.7551 4.24634 19.7386 4.24207 19.7148 4.24767C19.703 4.25025 19.6904 4.2481 19.6796 4.24167C19.6567 4.22754 19.6324 4.22421 19.6068 4.23167C19.6014 4.23326 19.5956 4.23339 19.59 4.23206C19.5845 4.23073 19.5794 4.22798 19.5752 4.22407C19.56 4.21021 19.5411 4.20487 19.5184 4.20807C19.5133 4.20882 19.5079 4.20816 19.5025 4.20615C19.497 4.20413 19.4918 4.20082 19.4872 4.19647L19.464 4.17447C19.461 4.17139 19.4561 4.16897 19.4497 4.16744C19.4434 4.1659 19.4358 4.1653 19.4276 4.16567C19.3836 4.16727 19.3436 4.15581 19.3076 4.13127C19.2963 4.12358 19.2833 4.12029 19.2712 4.12207C19.1984 4.13247 19.122 4.15367 19.0896 4.06207C19.089 4.06022 19.0879 4.05857 19.0864 4.05726C19.085 4.05594 19.0832 4.05501 19.0813 4.05454C19.0793 4.05406 19.0773 4.05406 19.0754 4.05454C19.0734 4.05502 19.0716 4.05596 19.07 4.05727C19.05 4.07461 19.0314 4.07554 19.014 4.06007C19.0084 4.0549 19.0024 4.05084 18.9968 4.04826C18.9911 4.04567 18.9859 4.04465 18.9816 4.04527L18.8884 4.05607C18.8822 4.0567 18.876 4.0561 18.8703 4.0543C18.8647 4.0525 18.8596 4.04956 18.8556 4.04567C18.8194 4.00967 18.774 3.99754 18.7196 4.00927C18.7083 4.01186 18.6955 4.00957 18.6836 4.00287L18.6212 3.96847C18.6168 3.9661 18.6113 3.9656 18.6057 3.96705C18.6001 3.96849 18.5948 3.97181 18.5904 3.97647C18.5704 3.99861 18.5508 4.00074 18.5316 3.98287C18.5281 3.97973 18.5235 3.97809 18.5188 3.97832C18.5141 3.97854 18.5096 3.98061 18.5064 3.98407C18.4875 4.00487 18.472 4.00514 18.46 3.98487C18.4552 3.97666 18.4455 3.96952 18.4328 3.96487C18.4224 3.96114 18.4155 3.95274 18.412 3.93967C18.4108 3.93484 18.4079 3.93065 18.4038 3.92802C18.3998 3.9254 18.395 3.92455 18.3904 3.92567C18.3288 3.94221 18.2718 3.93541 18.2192 3.90527C18.207 3.89834 18.1947 3.89474 18.1824 3.89447L17.9428 3.88767C17.9391 3.88756 17.9356 3.88666 17.9328 3.8851C17.93 3.88354 17.9279 3.88137 17.9268 3.87887L17.9232 3.86927C17.9212 3.86418 17.9181 3.8598 17.9145 3.85683C17.9109 3.85386 17.9069 3.85247 17.9032 3.85287C17.8622 3.85794 17.8223 3.85541 17.7836 3.84527C17.7252 3.83007 17.6868 3.82141 17.6684 3.81927C17.5298 3.80407 17.3936 3.77581 17.26 3.73447C17.255 3.73287 17.2493 3.7328 17.2435 3.73427C17.2377 3.73574 17.232 3.7387 17.2268 3.74287C17.2116 3.75514 17.1968 3.75647 17.1824 3.74687C17.177 3.74325 17.1711 3.74075 17.1653 3.73958C17.1594 3.7384 17.1538 3.73857 17.1488 3.74007C17.108 3.75261 17.0976 3.74087 17.1176 3.70487C17.1238 3.69367 17.1206 3.68834 17.108 3.68887C16.9675 3.69714 16.829 3.68634 16.6924 3.65647C16.687 3.65525 16.6812 3.65552 16.6754 3.65726C16.6696 3.659 16.6641 3.66216 16.6592 3.66647C16.6104 3.71207 16.4184 3.65167 16.36 3.64567C16.3549 3.64517 16.3497 3.64308 16.345 3.63959C16.3404 3.6361 16.3363 3.63131 16.3332 3.62567C16.3207 3.60301 16.296 3.59701 16.2592 3.60767C16.2548 3.60893 16.2504 3.61192 16.2463 3.61639C16.2423 3.62085 16.2387 3.62665 16.236 3.63327C16.2312 3.64554 16.222 3.65354 16.2084 3.65727C16.2042 3.65852 16.1986 3.65856 16.1921 3.65739C16.1856 3.65621 16.1783 3.65385 16.1708 3.65047C16.1348 3.63447 16.1043 3.64141 16.0792 3.67127C16.0776 3.6732 16.0757 3.67481 16.0735 3.67601C16.0713 3.6772 16.0689 3.67795 16.0665 3.67821C16.064 3.67847 16.0616 3.67824 16.0594 3.67753C16.0571 3.67682 16.055 3.67564 16.0532 3.67407L15.9952 3.62127C15.9865 3.61307 15.9739 3.60848 15.96 3.60847C15.8166 3.60767 15.6734 3.60847 15.5304 3.61087C15.4816 3.61167 15.4552 3.59034 15.4512 3.54687C15.4508 3.54155 15.4486 3.53657 15.4448 3.53294C15.4411 3.52931 15.4363 3.52728 15.4312 3.52727H14.8656C14.8618 3.52729 14.8579 3.52604 14.8546 3.52368C14.8513 3.52132 14.8488 3.51797 14.8472 3.51407C14.836 3.48581 14.8303 3.48487 14.83 3.51127C14.8299 3.51438 14.8287 3.51733 14.8266 3.51949C14.8245 3.52165 14.8217 3.52287 14.8188 3.52287L13.2896 3.52327C13.2843 3.52326 13.2788 3.52165 13.2735 3.51859C13.2682 3.51553 13.2633 3.5111 13.2592 3.50567C13.2403 3.47954 13.2199 3.48154 13.198 3.51167C13.1944 3.51674 13.1898 3.52087 13.1845 3.52372C13.1792 3.52658 13.1734 3.52807 13.1676 3.52807L12.9004 3.52847C12.8974 3.52848 12.8944 3.52941 12.8916 3.53116C12.8889 3.53292 12.8865 3.53545 12.8848 3.53847L12.8792 3.54847C12.8766 3.55341 12.8723 3.55754 12.8668 3.56043C12.8613 3.56332 12.8548 3.56486 12.848 3.56487L12.65 3.56647C12.6464 3.56646 12.6428 3.5677 12.6398 3.57001C12.6369 3.57233 12.6347 3.57558 12.6336 3.57927C12.6272 3.60327 12.621 3.60367 12.6148 3.58047C12.6138 3.57666 12.6117 3.57326 12.609 3.5707C12.6063 3.56814 12.6031 3.56653 12.5996 3.56607C12.5562 3.55914 12.5163 3.56301 12.48 3.57767C12.4682 3.58231 12.4552 3.58246 12.4436 3.57807C12.4202 3.56901 12.3956 3.56514 12.37 3.56647C12.3651 3.56671 12.3597 3.56843 12.3539 3.57153C12.3482 3.57462 12.3424 3.57903 12.3368 3.58447C12.3232 3.59781 12.3107 3.59941 12.2992 3.58927C12.2943 3.58492 12.2888 3.58174 12.2833 3.58005C12.2778 3.57836 12.2725 3.57823 12.268 3.57967C12.1598 3.61354 12.0502 3.61861 11.9392 3.59487C11.927 3.59221 11.9142 3.59287 11.9008 3.59687C11.8478 3.61207 11.7928 3.61567 11.736 3.60767C11.7337 3.60734 11.7313 3.60752 11.7291 3.6082C11.7268 3.60889 11.7247 3.61006 11.7229 3.61164C11.7211 3.61322 11.7196 3.61518 11.7186 3.61739C11.7175 3.6196 11.7169 3.62202 11.7168 3.62447C11.7155 3.66954 11.6902 3.69114 11.6408 3.68927C11.608 3.68821 11.5003 3.68807 11.3176 3.68887C11.2731 3.68914 11.2435 3.70061 11.2288 3.72327C11.2259 3.72775 11.2217 3.73116 11.2169 3.73291C11.2122 3.73466 11.2072 3.73465 11.2028 3.73287C11.1716 3.72007 11.1426 3.72167 11.1156 3.73767C11.112 3.73986 11.1078 3.74078 11.1035 3.74027C11.0993 3.73976 11.0952 3.73787 11.092 3.73487C11.0814 3.72527 11.0742 3.72781 11.0704 3.74247C11.0691 3.74789 11.0662 3.75269 11.0623 3.75616C11.0584 3.75963 11.0537 3.76157 11.0488 3.76167L10.3856 3.76567C10.3775 3.76579 10.3696 3.76847 10.3632 3.77332C10.3569 3.77816 10.3524 3.78489 10.3504 3.79247C10.3446 3.81541 10.3343 3.83181 10.3196 3.84167C10.3153 3.8444 10.3097 3.8453 10.304 3.84421C10.2982 3.84313 10.2924 3.84012 10.2876 3.83567C10.2474 3.79807 10.2128 3.79794 10.184 3.83527C10.1808 3.83948 10.1764 3.84291 10.171 3.84527C10.1657 3.84763 10.1596 3.84886 10.1532 3.84887H10.0664C10.0624 3.84885 10.0571 3.85035 10.0511 3.85326C10.045 3.85617 10.0384 3.86042 10.0316 3.86567C10.0111 3.88141 9.98777 3.88874 9.96164 3.88767C9.95674 3.88756 9.95179 3.88538 9.94748 3.88143C9.94318 3.87749 9.93974 3.87197 9.93764 3.86567C9.92937 3.83981 9.90951 3.83394 9.87804 3.84807C9.87331 3.85026 9.86957 3.85415 9.86757 3.85897C9.86557 3.86378 9.86545 3.86917 9.86724 3.87407C9.87231 3.88794 9.87297 3.89994 9.86924 3.91007C9.86735 3.91522 9.86325 3.91968 9.85751 3.92284C9.85178 3.92599 9.84469 3.92768 9.83724 3.92767L9.63884 3.92847C9.62699 3.92848 9.61517 3.93318 9.60564 3.94167C9.55004 3.99247 9.49244 3.94327 9.43524 3.98607C9.43358 3.98734 9.43167 3.98823 9.42963 3.9887C9.42758 3.98917 9.42544 3.98919 9.42333 3.98878C9.42123 3.98837 9.41922 3.98752 9.41741 3.9863C9.41561 3.98508 9.41405 3.9835 9.41284 3.98167C9.40431 3.96887 9.39697 3.96741 9.39084 3.97727C9.38677 3.98344 9.38222 3.98864 9.37761 3.99241C9.373 3.99618 9.36847 3.9984 9.36444 3.99887L9.22724 4.01367C9.21465 4.01496 9.20317 4.02099 9.19524 4.03047C9.17151 4.05954 9.14071 4.07341 9.10284 4.07207C9.09941 4.07205 9.09605 4.07069 9.09329 4.06822C9.09053 4.06576 9.08854 4.06232 9.08764 4.05847C9.08151 4.03074 9.07404 4.03421 9.06524 4.06887C9.06397 4.0734 9.06142 4.07739 9.05796 4.08027C9.05451 4.08315 9.05033 4.08476 9.04604 4.08487L8.78124 4.09047C8.77554 4.09061 8.77002 4.09239 8.76539 4.0956C8.76076 4.0988 8.75723 4.10328 8.75524 4.10847C8.74724 4.12927 8.73417 4.14754 8.71604 4.16327C8.71172 4.16688 8.70629 4.16937 8.70017 4.17055C8.69406 4.17173 8.68744 4.17157 8.68084 4.17007C8.59871 4.15167 8.53244 4.17247 8.48204 4.23247C8.4778 4.2376 8.47266 4.24172 8.46698 4.24456C8.46131 4.2474 8.45525 4.24887 8.44924 4.24887L8.25204 4.25087C8.24887 4.25087 8.24579 4.25165 8.24312 4.25313C8.24044 4.2546 8.23828 4.25672 8.23684 4.25927L8.23204 4.26767C8.22937 4.27253 8.22545 4.27661 8.22068 4.27948C8.21591 4.28236 8.21044 4.28394 8.20484 4.28407C8.18431 4.28434 8.16804 4.29287 8.15604 4.30967C8.15231 4.31488 8.14769 4.31915 8.14255 4.32214C8.1374 4.32512 8.13189 4.32675 8.12644 4.32687L7.89684 4.33247C7.89145 4.33261 7.88614 4.3346 7.88164 4.33817C7.87714 4.34174 7.87365 4.34673 7.87164 4.35247C7.85911 4.39194 7.83804 4.40287 7.80844 4.38527C7.80347 4.38229 7.79784 4.38052 7.79201 4.38011C7.78618 4.37969 7.7803 4.38064 7.77484 4.38287C7.75751 4.39034 7.74231 4.38807 7.72924 4.37607C7.72177 4.36914 7.71737 4.37074 7.71604 4.38087C7.71337 4.40327 7.70364 4.41181 7.68684 4.40647C7.68514 4.40593 7.68335 4.4057 7.6816 4.40579C7.67985 4.40589 7.67817 4.40632 7.67669 4.40704C7.67521 4.40776 7.67395 4.40876 7.67301 4.40998C7.67207 4.41119 7.67147 4.41259 7.67124 4.41407L7.66924 4.42687C7.66845 4.43237 7.66586 4.43739 7.66196 4.441C7.65806 4.44461 7.65311 4.44656 7.64804 4.44647L7.57404 4.44407C7.56872 4.44384 7.5634 4.44551 7.55887 4.44882C7.55433 4.45213 7.55082 4.45692 7.54884 4.46247C7.52444 4.53167 7.48084 4.46527 7.45164 4.45407C7.40764 4.43701 7.37751 4.45087 7.36124 4.49567C7.35899 4.50181 7.3553 4.50712 7.35066 4.51091C7.34601 4.5147 7.34064 4.51678 7.33524 4.51687L7.19004 4.52047C7.1762 4.52073 7.16357 4.5242 7.15364 4.53047C7.14684 4.53487 6.96004 4.65407 6.93164 4.61887C6.92913 4.61577 6.92563 4.61365 6.9218 4.61291C6.91797 4.61217 6.91407 4.61287 6.91084 4.61487C6.90471 4.61887 6.89831 4.62047 6.89164 4.61967C6.88654 4.61912 6.88149 4.6201 6.87739 4.62245C6.87328 4.62479 6.87039 4.62835 6.86924 4.63247C6.85857 4.67354 6.83244 4.69741 6.79084 4.70407C6.78574 4.70482 6.78052 4.70365 6.77618 4.70078C6.77184 4.69791 6.76866 4.69353 6.76724 4.68847L6.76244 4.67087C6.75951 4.66047 6.75431 4.65994 6.74684 4.66927C6.73297 4.68661 6.71471 4.69101 6.69204 4.68247C6.69005 4.68174 6.68792 4.68144 6.68581 4.6816C6.68369 4.68176 6.68163 4.68237 6.67977 4.68339C6.67791 4.68442 6.6763 4.68583 6.67503 4.68754C6.67377 4.68924 6.67288 4.6912 6.67244 4.69327L6.66764 4.71447C6.66712 4.71688 6.66604 4.71914 6.66446 4.72111C6.66288 4.72309 6.66084 4.72474 6.65845 4.72597C6.65607 4.7272 6.65338 4.72798 6.65056 4.72828C6.64774 4.72857 6.64485 4.72836 6.64204 4.72767C6.60844 4.72021 6.58937 4.72874 6.58484 4.75327C6.58379 4.75866 6.58117 4.76353 6.57739 4.76708C6.57362 4.77064 6.56891 4.77268 6.56404 4.77287C6.50244 4.77447 6.45791 4.80314 6.43044 4.85887C6.42729 4.86517 6.42305 4.87052 6.41818 4.87432C6.41332 4.87813 6.40801 4.88026 6.40284 4.88047L6.24524 4.88647C6.23939 4.88671 6.2338 4.88846 6.22912 4.89151C6.22444 4.89456 6.22087 4.89878 6.21884 4.90367C6.20151 4.94794 6.17351 4.96341 6.13484 4.95007C6.12969 4.94838 6.12409 4.94823 6.11866 4.94964C6.11322 4.95106 6.10816 4.95397 6.10404 4.95807C6.08964 4.97274 6.07204 4.97887 6.05124 4.97647C6.04615 4.97583 6.04103 4.97704 6.03694 4.97987C6.03284 4.9827 6.03009 4.98693 6.02924 4.99167C6.02471 5.01354 6.01417 5.02914 5.99764 5.03847C5.99562 5.0396 5.99333 5.0402 5.99094 5.04022C5.98854 5.04025 5.98608 5.0397 5.98372 5.03861C5.98135 5.03752 5.97913 5.03591 5.97719 5.03389C5.97524 5.03187 5.97363 5.02948 5.97244 5.02687C5.95671 4.99221 5.93591 4.99421 5.91004 5.03287C5.90649 5.03802 5.90182 5.04221 5.89645 5.04508C5.89107 5.04794 5.88516 5.04938 5.87924 5.04927C5.81097 5.04821 5.75004 5.06581 5.69644 5.10207C5.66951 5.12047 5.64097 5.12994 5.61084 5.13047C5.60492 5.13047 5.59902 5.13176 5.59352 5.13423C5.58801 5.13671 5.58301 5.14034 5.57884 5.14487C5.55911 5.16674 5.53444 5.17447 5.50484 5.16807C5.49675 5.16623 5.48908 5.16545 5.48256 5.1658C5.47604 5.16615 5.4709 5.16762 5.46764 5.17007L5.39204 5.22527C5.37791 5.23567 5.36911 5.24154 5.36564 5.24287L5.20244 5.29607C5.19524 5.29847 5.19471 5.30234 5.20084 5.30767C5.22044 5.32447 5.12804 5.33367 5.10964 5.35247C5.10417 5.35808 5.09835 5.36259 5.09266 5.36564C5.08696 5.3687 5.08155 5.37022 5.07684 5.37007L4.97004 5.36567C4.96767 5.36557 4.9653 5.36593 4.96309 5.36671C4.96089 5.3675 4.9589 5.36869 4.95726 5.37021C4.95563 5.37173 4.95438 5.37355 4.95362 5.37552C4.95286 5.3775 4.95259 5.3796 4.95284 5.38167C4.95817 5.42647 4.95151 5.44194 4.93284 5.42807C4.92866 5.42492 4.9236 5.42324 4.9185 5.42331C4.9134 5.42339 4.90858 5.42521 4.90484 5.42847C4.88351 5.44741 4.85724 5.45621 4.82604 5.45487C4.8208 5.45478 4.81556 5.45635 4.81095 5.4594C4.80635 5.46245 4.80256 5.46685 4.80004 5.47207C4.79524 5.48194 4.78831 5.48727 4.77924 5.48807C4.77264 5.48869 4.76654 5.4903 4.76151 5.49274C4.75648 5.49519 4.75268 5.4984 4.75044 5.50207C4.73417 5.52794 4.71444 5.53234 4.69124 5.51527C4.68769 5.51249 4.68307 5.51113 4.67808 5.51142C4.67309 5.51171 4.66801 5.51363 4.66364 5.51687L4.54764 5.60407C4.54596 5.60539 4.54395 5.60615 4.54175 5.6063C4.53956 5.60645 4.53724 5.60599 4.53496 5.60495C4.53269 5.60391 4.53053 5.60232 4.52864 5.6003C4.52674 5.59827 4.52517 5.59587 4.52404 5.59327C4.51577 5.57407 4.50044 5.56847 4.47804 5.57647C4.4759 5.57723 4.47377 5.5787 4.47177 5.58076C4.46977 5.58283 4.46795 5.58546 4.46644 5.58847C4.46217 5.59781 4.45724 5.59381 4.45164 5.57647C4.44924 5.56821 4.44564 5.56754 4.44084 5.57447C4.40084 5.63127 4.35017 5.67727 4.28884 5.71247C4.28459 5.71484 4.2807 5.71864 4.27745 5.72361C4.2742 5.72859 4.27167 5.73462 4.27004 5.74127L4.26524 5.76047C4.26403 5.7656 4.2607 5.7702 4.25577 5.77353C4.25084 5.77686 4.2446 5.77874 4.23804 5.77887L4.12404 5.78087C4.11887 5.78098 4.11391 5.78311 4.11008 5.78687C4.10625 5.79062 4.10382 5.79575 4.10324 5.80127C4.09951 5.83514 4.08137 5.85181 4.04884 5.85127C4.04371 5.85113 4.0387 5.85289 4.03479 5.85621C4.03088 5.85953 4.02833 5.86418 4.02764 5.86927C4.02151 5.91114 3.99591 5.93434 3.95084 5.93887C3.94953 5.93892 3.94828 5.93936 3.9472 5.94016C3.94612 5.94097 3.94523 5.94212 3.94461 5.94351C3.94399 5.94491 3.94365 5.94652 3.94362 5.94821C3.94359 5.94991 3.94387 5.95164 3.94444 5.95327L3.95164 5.97247C3.95321 5.97666 3.95592 5.98021 3.95924 5.98243C3.96257 5.98464 3.96628 5.98537 3.96964 5.98447C3.98804 5.98021 3.99417 5.98487 3.98804 5.99847C3.98647 6.00193 3.98361 6.00489 3.97979 6.00701C3.97596 6.00914 3.97133 6.01034 3.96644 6.01047L3.73644 6.01407C3.73118 6.01422 3.726 6.01634 3.72161 6.02015C3.71723 6.02396 3.71388 6.02925 3.71204 6.03527C3.69791 6.08141 3.66484 6.10127 3.61284 6.09487C3.60628 6.09399 3.59973 6.09439 3.5936 6.09604C3.58747 6.09769 3.58189 6.10057 3.57724 6.10447L3.27364 6.35487C3.26882 6.35881 3.26503 6.36378 3.26259 6.36935C3.26015 6.37493 3.25914 6.38094 3.25964 6.38687C3.26737 6.47434 3.26284 6.49901 3.24604 6.46087C3.24448 6.45732 3.24113 6.45425 3.23642 6.45204C3.23172 6.44983 3.22587 6.44858 3.21964 6.44847L3.19644 6.44767C3.19411 6.4476 3.19191 6.44682 3.19 6.44539C3.1881 6.44396 3.18655 6.44192 3.18549 6.43945C3.18443 6.43699 3.18389 6.43415 3.18392 6.4312C3.18394 6.42824 3.18454 6.42525 3.18564 6.42247C3.20164 6.38247 3.20511 6.34127 3.19604 6.29887C3.19311 6.28447 3.18884 6.28407 3.18324 6.29767C3.15071 6.37634 3.14284 6.44061 3.15964 6.49047C3.17297 6.52967 3.18044 6.52821 3.18204 6.48607C3.18212 6.48417 3.18261 6.48229 3.18347 6.4806C3.18434 6.47891 3.18555 6.47745 3.18702 6.47633C3.1885 6.4752 3.19018 6.47445 3.19196 6.47413C3.19373 6.47381 3.19554 6.47393 3.19724 6.47447C3.25884 6.49327 3.23164 6.59407 3.16724 6.60807C3.1618 6.60933 3.15695 6.61227 3.15346 6.61641C3.14998 6.62054 3.14807 6.62564 3.14804 6.63087C3.14884 6.70234 3.13617 6.70154 3.11004 6.62847C3.11604 6.54607 3.16404 5.94007 3.20844 5.92007L3.21084 5.96447C3.21092 5.96655 3.21155 5.96857 3.21268 5.97039C3.21381 5.9722 3.21542 5.97377 3.2174 5.97499C3.21938 5.9762 3.22167 5.97704 3.22413 5.97743C3.22659 5.97783 3.22915 5.97777 3.23164 5.97727C3.25457 5.97221 3.26497 5.98941 3.26284 6.02887C3.26231 6.04061 3.26671 6.04261 3.27604 6.03487L3.36164 5.96327C3.36282 5.96226 3.36427 5.96163 3.36588 5.96142C3.36749 5.96122 3.36923 5.96146 3.37095 5.96211C3.37268 5.96276 3.37435 5.96382 3.37586 5.96519C3.37736 5.96657 3.37865 5.96824 3.37964 5.97007C3.38177 5.97381 3.38484 5.97674 3.38884 5.97887C3.39153 5.98026 3.39486 5.98054 3.39837 5.97968C3.40189 5.97882 3.4054 5.97686 3.40844 5.97407C3.48844 5.90341 3.57804 5.85061 3.67724 5.81567C3.69404 5.80967 3.74884 5.80807 3.75324 5.78207C3.75403 5.77734 3.75642 5.77306 3.75996 5.77003C3.7635 5.76701 3.76794 5.76546 3.77244 5.76567C3.79164 5.76701 3.80697 5.75954 3.81844 5.74327C3.82233 5.73766 3.82706 5.73307 3.83217 5.72992C3.83728 5.72677 3.8426 5.72517 3.84764 5.72527L3.88084 5.72647C3.88725 5.72672 3.89354 5.72571 3.89927 5.7235C3.905 5.72129 3.91004 5.71794 3.91404 5.71367C3.95991 5.66514 4.01764 5.64301 4.08724 5.64727C4.09705 5.64806 4.10965 5.64452 4.12284 5.63727L4.22844 5.58047C4.23167 5.57874 4.23681 5.5777 4.24342 5.57742C4.25003 5.57714 4.25792 5.57764 4.26644 5.57887C4.29311 5.58261 4.30817 5.57034 4.31164 5.54207C4.31229 5.5365 4.31467 5.53132 4.31837 5.5274C4.32208 5.52348 4.3269 5.52103 4.33204 5.52047C4.40937 5.51061 4.47191 5.47981 4.51964 5.42807C4.53244 5.41447 4.54737 5.40701 4.56444 5.40567C4.58017 5.40407 4.59217 5.40047 4.60044 5.39487C4.67137 5.34741 4.74537 5.30607 4.82244 5.27087C4.82617 5.26927 4.85617 5.25381 4.91244 5.22447C4.96177 5.19861 5.01471 5.18421 5.07124 5.18127C5.07713 5.1809 5.08294 5.17913 5.08827 5.17609C5.09359 5.17304 5.09829 5.16881 5.10204 5.16367C5.13364 5.11927 5.17764 5.08927 5.23244 5.08087C5.24257 5.07927 5.25137 5.07487 5.25884 5.06767C5.26989 5.05687 5.28131 5.05001 5.29084 5.04847C5.47084 5.01687 5.59324 4.90807 5.78084 4.87967C5.81724 4.87407 5.84684 4.85407 5.86884 4.82767C5.87706 4.8174 5.8884 4.81079 5.90044 4.80927C5.99164 4.79567 6.08004 4.71287 6.15964 4.71967C6.16905 4.72046 6.17846 4.71866 6.18684 4.71447C6.25924 4.67887 6.39644 4.59647 6.47484 4.60487C6.48013 4.6055 6.48571 4.60459 6.49109 4.60222C6.49646 4.59985 6.50146 4.59608 6.50564 4.59127C6.51977 4.57527 6.53831 4.56714 6.56124 4.56687C6.57407 4.5666 6.58596 4.56173 6.59444 4.55327C6.62697 4.52154 6.66897 4.51021 6.72044 4.51927C6.72664 4.52032 6.73287 4.51963 6.7382 4.51733C6.74354 4.51502 6.74769 4.51121 6.75004 4.50647L6.75444 4.49687C6.75573 4.49434 6.75776 4.4923 6.76023 4.49107C6.76269 4.48984 6.76544 4.48949 6.76804 4.49007C6.81364 4.49967 6.84604 4.48701 6.86524 4.45207C6.86781 4.44754 6.87191 4.4441 6.87678 4.44241C6.88165 4.44071 6.88694 4.44088 6.89164 4.44287C6.93697 4.46154 6.97844 4.45461 7.01604 4.42207C7.02598 4.41344 7.03774 4.40777 7.05004 4.40567C7.14244 4.39007 7.18444 4.31847 7.26764 4.28807C7.27173 4.28656 7.27632 4.28684 7.28047 4.28884C7.28463 4.29085 7.28805 4.29443 7.29004 4.29887C7.29777 4.31541 7.30537 4.31661 7.31284 4.30247C7.31497 4.29845 7.31808 4.29512 7.32178 4.29291C7.32548 4.29071 7.32961 4.28972 7.33364 4.29007C7.41311 4.29727 7.48044 4.27461 7.53564 4.22207C7.53974 4.21808 7.54495 4.21531 7.55072 4.21404C7.5565 4.21277 7.56262 4.21306 7.56844 4.21487C7.62311 4.23247 7.66897 4.21967 7.70604 4.17647C7.70978 4.1721 7.71469 4.16882 7.72026 4.16699C7.72582 4.16516 7.73182 4.16485 7.73764 4.16607C7.77551 4.17407 7.80644 4.16354 7.83044 4.13447C7.83157 4.13309 7.83303 4.13202 7.83469 4.13136C7.83635 4.13071 7.83815 4.13049 7.83991 4.13073C7.84168 4.13097 7.84336 4.13166 7.84478 4.13274C7.8462 4.13381 7.84733 4.13524 7.84804 4.13687C7.85657 4.15714 7.86684 4.16034 7.87884 4.14647C7.88292 4.14178 7.88787 4.13809 7.8933 4.13573C7.89872 4.13336 7.90446 4.13238 7.91004 4.13287C7.94204 4.13527 7.96777 4.12621 7.98724 4.10567C7.99143 4.10109 7.99653 4.09757 8.00211 4.09541C8.00768 4.09325 8.01356 4.09252 8.01924 4.09327C8.06831 4.09994 8.10897 4.08527 8.14124 4.04927C8.14502 4.04502 8.15001 4.04198 8.15556 4.04056C8.16112 4.03914 8.16699 4.03938 8.17244 4.04127C8.19831 4.04981 8.22564 4.05114 8.25444 4.04527C8.25885 4.04442 8.2628 4.04188 8.26552 4.03812C8.26825 4.03436 8.26957 4.02965 8.26924 4.02487C8.26791 4.00061 8.27324 3.99447 8.28524 4.00647C8.28786 4.00918 8.29111 4.01111 8.29459 4.01204C8.29806 4.01296 8.30163 4.01283 8.30484 4.01167C8.33631 3.99967 8.36871 3.99781 8.40204 4.00607C8.40732 4.00729 8.41295 4.00689 8.41831 4.00491C8.42368 4.00293 8.42857 3.99946 8.43244 3.99487C8.48524 3.93007 8.55804 4.01127 8.62564 3.93567C8.62764 3.93342 8.63004 3.9315 8.63266 3.9301C8.63527 3.92869 8.63801 3.92783 8.64064 3.9276C8.64328 3.92736 8.64572 3.92775 8.64778 3.92874C8.64983 3.92973 8.65143 3.93128 8.65244 3.93327L8.65764 3.94367C8.65831 3.94491 8.65918 3.94603 8.66017 3.94697C8.66117 3.94791 8.66228 3.94865 8.66344 3.94913C8.6646 3.94962 8.66579 3.94985 8.66692 3.9498C8.66805 3.94976 8.66912 3.94944 8.67004 3.94887C8.77004 3.88754 8.87764 3.85287 8.99284 3.84487C9.00537 3.84407 9.01777 3.84034 9.03004 3.83367C9.07991 3.80647 9.13404 3.79741 9.19244 3.80647C9.20557 3.80852 9.21858 3.80581 9.22884 3.79887C9.32297 3.73381 9.43017 3.71074 9.55044 3.72967C9.55796 3.73091 9.56524 3.73087 9.57165 3.72955C9.57806 3.72822 9.58341 3.72566 9.58724 3.72207L9.61764 3.69407C9.62688 3.68534 9.63835 3.68047 9.64964 3.68047L9.81724 3.68087C9.82207 3.68087 9.82742 3.67917 9.83284 3.67589C9.83827 3.67262 9.84362 3.66788 9.84844 3.66207C9.87271 3.63274 9.90324 3.62874 9.94004 3.65007C9.98137 3.67381 10.0183 3.67061 10.0508 3.64047C10.146 3.55247 10.2208 3.64807 10.3052 3.58247C10.3173 3.57301 10.3295 3.5677 10.3392 3.56767L10.4832 3.56567C10.4885 3.56568 10.4939 3.56402 10.4988 3.56085C10.5036 3.55768 10.5078 3.55313 10.5108 3.54767C10.5368 3.49967 10.6992 3.52807 10.7304 3.52927C10.7374 3.52965 10.7441 3.52878 10.7503 3.52671C10.7564 3.52465 10.7618 3.52143 10.766 3.51727L10.7936 3.49087C10.7985 3.48628 10.804 3.48279 10.8097 3.48071C10.8154 3.47862 10.8211 3.47799 10.8264 3.47887C10.9512 3.49887 11.0428 3.49981 11.1012 3.48167C11.174 3.45874 11.234 3.45594 11.2812 3.47327C11.2872 3.47552 11.2935 3.47646 11.2996 3.47605C11.3057 3.47563 11.3114 3.47386 11.3164 3.47087C11.4151 3.41194 11.5234 3.39021 11.6412 3.40567C11.6816 3.41087 11.7428 3.47567 11.7492 3.38847C11.7497 3.38246 11.7519 3.37682 11.7556 3.37241C11.7592 3.368 11.764 3.36507 11.7692 3.36407C11.8266 3.35341 11.8806 3.35927 11.9312 3.38167C11.9367 3.38416 11.9427 3.38531 11.9488 3.38503C11.9549 3.38475 11.961 3.38306 11.9664 3.38007C12.0536 3.33207 12.1204 3.40847 12.2244 3.33527C12.2361 3.32724 12.2487 3.32302 12.2604 3.32327L12.7404 3.33647C12.7424 3.33659 12.7444 3.33608 12.746 3.335C12.7477 3.33392 12.749 3.33233 12.7496 3.33047L12.7512 3.32727C12.7516 3.32636 12.7522 3.32556 12.7529 3.32499C12.7537 3.32442 12.7547 3.3241 12.7556 3.32407C12.8308 3.32727 13.2368 3.33967 13.2748 3.30967C13.2762 3.30857 13.2779 3.3077 13.2796 3.30716C13.2812 3.30662 13.2829 3.30643 13.2845 3.30659C13.2861 3.30674 13.2874 3.30726 13.2885 3.30808C13.2895 3.3089 13.2902 3.30999 13.2904 3.31127L13.292 3.31767C13.2925 3.31927 13.2933 3.32068 13.2945 3.32169C13.2957 3.3227 13.297 3.32325 13.2984 3.32327C13.636 3.32781 13.8532 3.32887 13.95 3.32647C14.2226 3.31927 14.4948 3.32234 14.7668 3.33567C14.832 3.33847 14.918 3.30647 14.9772 3.31167C15.1127 3.32341 15.2535 3.32434 15.3996 3.31447C15.4031 3.31421 15.4064 3.31461 15.4096 3.31567C15.444 3.32661 15.4787 3.32967 15.5136 3.32487C15.5175 3.32432 15.5214 3.32514 15.5246 3.32716C15.5277 3.32917 15.5298 3.33222 15.5304 3.33567L15.5316 3.34247C15.532 3.34454 15.533 3.34642 15.5344 3.3478C15.5359 3.34918 15.5377 3.34998 15.5396 3.35007L15.9932 3.36887C15.9978 3.36907 16.0023 3.37114 16.006 3.37476C16.0097 3.37837 16.0124 3.38333 16.0136 3.38887C16.0228 3.42967 16.4536 3.39607 16.4892 3.42887C16.4947 3.43395 16.5004 3.43802 16.506 3.44083C16.5117 3.44365 16.5171 3.44516 16.522 3.44527C16.584 3.44767 16.6316 3.43967 16.6932 3.46167C16.7831 3.49367 16.8758 3.50287 16.9712 3.48927C16.9814 3.48767 16.994 3.48927 17.0092 3.49407L17.1256 3.53007C17.1352 3.53288 17.1489 3.53145 17.164 3.52607C17.2243 3.50394 17.2806 3.51021 17.3328 3.54487C17.3443 3.5527 17.357 3.55701 17.3692 3.55727C17.4276 3.55847 17.8404 3.60287 17.8496 3.62767C17.8516 3.63273 17.8547 3.63714 17.8587 3.64039C17.8626 3.64364 17.8672 3.64561 17.872 3.64607L17.9608 3.65407C17.9718 3.65512 17.9838 3.65232 17.9952 3.64607C18.007 3.63967 18.0187 3.64207 18.0304 3.65327C18.0368 3.65934 18.043 3.66438 18.0487 3.66795C18.0543 3.67151 18.0592 3.67348 18.0628 3.67367L18.2212 3.68247C18.2402 3.68354 18.2531 3.68541 18.26 3.68807C18.3107 3.70941 18.3635 3.72194 18.4184 3.72567C18.5188 3.73287 18.612 3.76847 18.7108 3.76647C18.7153 3.76638 18.7198 3.76781 18.7235 3.77054C18.7273 3.77327 18.7301 3.77717 18.7316 3.78167L18.734 3.78887C18.7349 3.79114 18.7364 3.79311 18.7383 3.79453C18.7402 3.79596 18.7425 3.79677 18.7448 3.79687C18.8414 3.79714 18.9255 3.82781 18.9972 3.88887C19.0011 3.89205 19.0061 3.89371 19.0114 3.89356C19.0167 3.89342 19.022 3.89148 19.0264 3.88807C19.0408 3.87634 19.0506 3.88074 19.0556 3.90127C19.0569 3.90639 19.06 3.91085 19.0642 3.91375C19.0685 3.91665 19.0735 3.91776 19.0784 3.91687C19.184 3.89874 19.2827 3.91661 19.3744 3.97047C19.3848 3.97672 19.3976 3.97952 19.4108 3.97847C19.4668 3.97474 19.5299 3.99261 19.6 4.03207C19.6731 4.07341 19.7759 4.09327 19.9084 4.09167C19.9134 4.09168 19.9182 4.09372 19.9219 4.09736C19.9255 4.101 19.9277 4.10598 19.928 4.11127C19.9296 4.13581 19.9394 4.14047 19.9572 4.12527C19.982 4.12314 19.9431 4.26808 19.9572 4.28195C19.9616 4.28635 20.0252 4.15058 20.0306 4.15247C20.036 4.15436 20.0414 4.15477 20.0464 4.15367C20.092 4.14301 20.1328 4.15274 20.1688 4.18287C20.1729 4.18622 20.1781 4.18811 20.1835 4.18826C20.1889 4.1884 20.1943 4.18679 20.1988 4.18367C20.218 4.17114 20.2351 4.17527 20.25 4.19607C20.2534 4.20058 20.2578 4.20404 20.263 4.20603C20.2681 4.20802 20.2736 4.20845 20.2788 4.20727C20.3148 4.19927 20.344 4.20794 20.3664 4.23327C20.3704 4.23787 20.3754 4.24149 20.3809 4.24385C20.3865 4.2462 20.3925 4.24724 20.3984 4.24687C20.4355 4.24421 20.4676 4.25407 20.4948 4.27647C20.5052 4.28501 20.5174 4.28968 20.5292 4.28967C20.5842 4.29101 20.6323 4.30954 20.6736 4.34527C20.6831 4.3535 20.6954 4.35792 20.708 4.35767C20.7534 4.35741 20.7947 4.37087 20.832 4.39807C20.842 4.40549 20.8547 4.40865 20.8672 4.40687C20.9094 4.40074 20.9463 4.40967 20.978 4.43367C20.9828 4.43715 20.9883 4.4395 20.9942 4.44054C21.0001 4.44158 21.0062 4.44128 21.012 4.43967C21.0443 4.43114 21.0584 4.44714 21.0544 4.48767C21.0534 4.49834 21.0568 4.49981 21.0648 4.49207C21.0808 4.47634 21.0932 4.47541 21.102 4.48927C21.1049 4.49392 21.1057 4.49969 21.1045 4.50565C21.1033 4.51161 21.1 4.51739 21.0952 4.52207L20.7916 4.82007Z" fill="#172B4D"/>
<path d="M20.7916 4.82007L18.414 7.19607C18.4097 7.20058 18.4065 7.20603 18.4049 7.21186C18.4033 7.21769 18.4033 7.22369 18.4048 7.22927L18.41 7.24847L18.4016 7.25007C14.5016 6.28247 10.3368 6.64367 6.62724 8.23127C6.622 8.23356 6.61752 8.2373 6.61433 8.24204C6.61114 8.24679 6.60937 8.25235 6.60924 8.25807C6.59484 9.76341 6.81124 11.2341 7.25844 12.6701C7.24751 12.6719 7.23391 12.6811 7.21764 12.6977C6.29977 13.6137 5.38337 14.5311 4.46844 15.4501C3.26337 12.6327 2.81057 9.69221 3.11004 6.62847C3.13617 6.70154 3.14884 6.70234 3.14804 6.63087C3.14807 6.62564 3.14998 6.62054 3.15346 6.61641C3.15695 6.61227 3.1618 6.60933 3.16724 6.60807C3.23164 6.59407 3.25884 6.49327 3.19724 6.47447C3.19554 6.47393 3.19373 6.47381 3.19196 6.47413C3.19018 6.47445 3.1885 6.4752 3.18702 6.47633C3.18555 6.47745 3.18434 6.47891 3.18347 6.4806C3.18261 6.48229 3.18212 6.48417 3.18204 6.48607C3.18044 6.52821 3.17297 6.52967 3.15964 6.49047C3.14284 6.44061 3.15071 6.37634 3.18324 6.29767C3.18884 6.28407 3.19311 6.28447 3.19604 6.29887C3.20511 6.34127 3.20164 6.38247 3.18564 6.42247C3.18454 6.42525 3.18394 6.42824 3.18392 6.4312C3.18389 6.43415 3.18443 6.43699 3.18549 6.43945C3.18655 6.44192 3.1881 6.44396 3.19 6.44539C3.19191 6.44682 3.19411 6.4476 3.19644 6.44767L3.21964 6.44847C3.22587 6.44858 3.23172 6.44983 3.23642 6.45204C3.24113 6.45425 3.24448 6.45732 3.24604 6.46087C3.26284 6.49901 3.26737 6.47434 3.25964 6.38687C3.25914 6.38094 3.26015 6.37493 3.26259 6.36935C3.26503 6.36378 3.26882 6.35881 3.27364 6.35487L3.57724 6.10447C3.58189 6.10057 3.58747 6.09769 3.5936 6.09604C3.59973 6.09439 3.60628 6.09399 3.61284 6.09487C3.66484 6.10127 3.69791 6.08141 3.71204 6.03527C3.71388 6.02925 3.71723 6.02396 3.72161 6.02015C3.726 6.01634 3.73118 6.01422 3.73644 6.01407L3.96644 6.01047C3.97133 6.01034 3.97596 6.00914 3.97979 6.00701C3.98361 6.00489 3.98647 6.00193 3.98804 5.99847C3.99417 5.98487 3.98804 5.98021 3.96964 5.98447C3.96628 5.98537 3.96257 5.98464 3.95924 5.98243C3.95592 5.98021 3.95321 5.97666 3.95164 5.97247L3.94444 5.95327C3.94387 5.95164 3.94359 5.94991 3.94362 5.94821C3.94365 5.94652 3.94399 5.94491 3.94461 5.94351C3.94523 5.94212 3.94612 5.94097 3.9472 5.94016C3.94828 5.93936 3.94953 5.93892 3.95084 5.93887C3.99591 5.93434 4.02151 5.91114 4.02764 5.86927C4.02833 5.86418 4.03088 5.85953 4.03479 5.85621C4.0387 5.85289 4.04371 5.85113 4.04884 5.85127C4.08137 5.85181 4.09951 5.83514 4.10324 5.80127C4.10382 5.79575 4.10625 5.79062 4.11008 5.78687C4.11391 5.78311 4.11887 5.78098 4.12404 5.78087L4.23804 5.77887C4.2446 5.77874 4.25084 5.77686 4.25577 5.77353C4.2607 5.7702 4.26403 5.7656 4.26524 5.76047L4.27004 5.74127C4.27167 5.73462 4.2742 5.72859 4.27745 5.72361C4.2807 5.71864 4.28459 5.71484 4.28884 5.71247C4.35017 5.67727 4.40084 5.63127 4.44084 5.57447C4.44564 5.56754 4.44924 5.56821 4.45164 5.57647C4.45724 5.59381 4.46217 5.59781 4.46644 5.58847C4.46795 5.58546 4.46977 5.58283 4.47177 5.58076C4.47377 5.5787 4.4759 5.57723 4.47804 5.57647C4.50044 5.56847 4.51577 5.57407 4.52404 5.59327C4.52517 5.59587 4.52674 5.59827 4.52864 5.6003C4.53053 5.60232 4.53269 5.60391 4.53496 5.60495C4.53724 5.60599 4.53956 5.60645 4.54175 5.6063C4.54395 5.60615 4.54596 5.60539 4.54764 5.60407L4.66364 5.51687C4.66801 5.51363 4.67309 5.51171 4.67808 5.51142C4.68307 5.51113 4.68769 5.51249 4.69124 5.51527C4.71444 5.53234 4.73417 5.52794 4.75044 5.50207C4.75268 5.4984 4.75648 5.49519 4.76151 5.49274C4.76654 5.4903 4.77264 5.48869 4.77924 5.48807C4.78831 5.48727 4.79524 5.48194 4.80004 5.47207C4.80256 5.46685 4.80635 5.46245 4.81095 5.4594C4.81556 5.45635 4.8208 5.45478 4.82604 5.45487C4.85724 5.45621 4.88351 5.44741 4.90484 5.42847C4.90858 5.42521 4.9134 5.42339 4.9185 5.42331C4.9236 5.42324 4.92866 5.42492 4.93284 5.42807C4.95151 5.44194 4.95817 5.42647 4.95284 5.38167C4.95259 5.3796 4.95286 5.3775 4.95362 5.37552C4.95438 5.37355 4.95563 5.37173 4.95726 5.37021C4.9589 5.36869 4.96089 5.3675 4.96309 5.36671C4.9653 5.36593 4.96767 5.36557 4.97004 5.36567L5.07684 5.37007C5.08155 5.37022 5.08696 5.3687 5.09266 5.36564C5.09835 5.36259 5.10417 5.35808 5.10964 5.35247C5.12804 5.33367 5.22044 5.32447 5.20084 5.30767C5.19471 5.30234 5.19524 5.29847 5.20244 5.29607L5.36564 5.24287C5.36911 5.24154 5.37791 5.23567 5.39204 5.22527L5.46764 5.17007C5.4709 5.16762 5.47604 5.16615 5.48256 5.1658C5.48908 5.16545 5.49675 5.16623 5.50484 5.16807C5.53444 5.17447 5.55911 5.16674 5.57884 5.14487C5.58301 5.14034 5.58801 5.13671 5.59352 5.13423C5.59902 5.13176 5.60492 5.13047 5.61084 5.13047C5.64097 5.12994 5.66951 5.12047 5.69644 5.10207C5.75004 5.06581 5.81097 5.04821 5.87924 5.04927C5.88516 5.04938 5.89107 5.04794 5.89645 5.04508C5.90182 5.04221 5.90649 5.03802 5.91004 5.03287C5.93591 4.99421 5.95671 4.99221 5.97244 5.02687C5.97363 5.02948 5.97524 5.03187 5.97719 5.03389C5.97913 5.03591 5.98135 5.03752 5.98372 5.03861C5.98608 5.0397 5.98854 5.04025 5.99094 5.04022C5.99333 5.0402 5.99562 5.0396 5.99764 5.03847C6.01417 5.02914 6.02471 5.01354 6.02924 4.99167C6.03009 4.98693 6.03284 4.9827 6.03694 4.97987C6.04103 4.97704 6.04615 4.97583 6.05124 4.97647C6.07204 4.97887 6.08964 4.97274 6.10404 4.95807C6.10816 4.95397 6.11322 4.95106 6.11866 4.94964C6.12409 4.94823 6.12969 4.94838 6.13484 4.95007C6.17351 4.96341 6.20151 4.94794 6.21884 4.90367C6.22087 4.89878 6.22444 4.89456 6.22912 4.89151C6.2338 4.88846 6.23939 4.88671 6.24524 4.88647L6.40284 4.88047C6.40801 4.88026 6.41332 4.87813 6.41818 4.87432C6.42305 4.87052 6.42729 4.86517 6.43044 4.85887C6.45791 4.80314 6.50244 4.77447 6.56404 4.77287C6.56891 4.77268 6.57362 4.77064 6.57739 4.76708C6.58117 4.76353 6.58379 4.75866 6.58484 4.75327C6.58937 4.72874 6.60844 4.72021 6.64204 4.72767C6.64485 4.72836 6.64774 4.72857 6.65056 4.72828C6.65338 4.72798 6.65607 4.7272 6.65845 4.72597C6.66084 4.72474 6.66288 4.72309 6.66446 4.72111C6.66604 4.71914 6.66712 4.71688 6.66764 4.71447L6.67244 4.69327C6.67288 4.6912 6.67377 4.68924 6.67503 4.68754C6.6763 4.68583 6.67791 4.68442 6.67977 4.68339C6.68163 4.68237 6.68369 4.68176 6.68581 4.6816C6.68792 4.68144 6.69005 4.68174 6.69204 4.68247C6.71471 4.69101 6.73297 4.68661 6.74684 4.66927C6.75431 4.65994 6.75951 4.66047 6.76244 4.67087L6.76724 4.68847C6.76866 4.69353 6.77184 4.69791 6.77618 4.70078C6.78052 4.70365 6.78574 4.70482 6.79084 4.70407C6.83244 4.69741 6.85857 4.67354 6.86924 4.63247C6.87039 4.62835 6.87328 4.62479 6.87739 4.62245C6.88149 4.6201 6.88654 4.61912 6.89164 4.61967C6.89831 4.62047 6.90471 4.61887 6.91084 4.61487C6.91407 4.61287 6.91797 4.61217 6.9218 4.61291C6.92563 4.61365 6.92913 4.61577 6.93164 4.61887C6.96004 4.65407 7.14684 4.53487 7.15364 4.53047C7.16357 4.5242 7.1762 4.52073 7.19004 4.52047L7.33524 4.51687C7.34064 4.51678 7.34601 4.5147 7.35066 4.51091C7.3553 4.50712 7.35899 4.50181 7.36124 4.49567C7.37751 4.45087 7.40764 4.43701 7.45164 4.45407C7.48084 4.46527 7.52444 4.53167 7.54884 4.46247C7.55082 4.45692 7.55433 4.45213 7.55887 4.44882C7.5634 4.44551 7.56872 4.44384 7.57404 4.44407L7.64804 4.44647C7.65311 4.44656 7.65806 4.44461 7.66196 4.441C7.66586 4.43739 7.66845 4.43237 7.66924 4.42687L7.67124 4.41407C7.67147 4.41259 7.67207 4.41119 7.67301 4.40998C7.67395 4.40876 7.67521 4.40776 7.67669 4.40704C7.67817 4.40632 7.67985 4.40589 7.6816 4.40579C7.68335 4.4057 7.68514 4.40593 7.68684 4.40647C7.70364 4.41181 7.71337 4.40327 7.71604 4.38087C7.71737 4.37074 7.72177 4.36914 7.72924 4.37607C7.74231 4.38807 7.75751 4.39034 7.77484 4.38287C7.7803 4.38064 7.78618 4.37969 7.79201 4.38011C7.79784 4.38052 7.80347 4.38229 7.80844 4.38527C7.83804 4.40287 7.85911 4.39194 7.87164 4.35247C7.87365 4.34673 7.87714 4.34174 7.88164 4.33817C7.88614 4.3346 7.89145 4.33261 7.89684 4.33247L8.12644 4.32687C8.13189 4.32675 8.1374 4.32512 8.14255 4.32214C8.14769 4.31915 8.15231 4.31488 8.15604 4.30967C8.16804 4.29287 8.18431 4.28434 8.20484 4.28407C8.21044 4.28394 8.21591 4.28236 8.22068 4.27948C8.22545 4.27661 8.22937 4.27253 8.23204 4.26767L8.23684 4.25927C8.23828 4.25672 8.24044 4.2546 8.24312 4.25313C8.24579 4.25165 8.24887 4.25087 8.25204 4.25087L8.44924 4.24887C8.45525 4.24887 8.46131 4.2474 8.46698 4.24456C8.47266 4.24172 8.4778 4.2376 8.48204 4.23247C8.53244 4.17247 8.59871 4.15167 8.68084 4.17007C8.68744 4.17157 8.69406 4.17173 8.70017 4.17055C8.70629 4.16937 8.71172 4.16688 8.71604 4.16327C8.73417 4.14754 8.74724 4.12927 8.75524 4.10847C8.75723 4.10328 8.76076 4.0988 8.76539 4.0956C8.77002 4.09239 8.77554 4.09061 8.78124 4.09047L9.04604 4.08487C9.05033 4.08476 9.05451 4.08315 9.05796 4.08027C9.06142 4.07739 9.06397 4.0734 9.06524 4.06887C9.07404 4.03421 9.08151 4.03074 9.08764 4.05847C9.08854 4.06232 9.09053 4.06576 9.09329 4.06822C9.09605 4.07069 9.09941 4.07205 9.10284 4.07207C9.14071 4.07341 9.17151 4.05954 9.19524 4.03047C9.20317 4.02099 9.21465 4.01496 9.22724 4.01367L9.36444 3.99887C9.36847 3.9984 9.373 3.99618 9.37761 3.99241C9.38222 3.98864 9.38677 3.98344 9.39084 3.97727C9.39697 3.96741 9.40431 3.96887 9.41284 3.98167C9.41405 3.9835 9.41561 3.98508 9.41741 3.9863C9.41922 3.98752 9.42123 3.98837 9.42333 3.98878C9.42544 3.98919 9.42758 3.98917 9.42963 3.9887C9.43167 3.98823 9.43358 3.98734 9.43524 3.98607C9.49244 3.94327 9.55004 3.99247 9.60564 3.94167C9.61517 3.93318 9.62699 3.92848 9.63884 3.92847L9.83724 3.92767C9.84469 3.92768 9.85178 3.92599 9.85751 3.92284C9.86325 3.91968 9.86735 3.91522 9.86924 3.91007C9.87297 3.89994 9.87231 3.88794 9.86724 3.87407C9.86545 3.86917 9.86557 3.86378 9.86757 3.85897C9.86957 3.85415 9.87331 3.85026 9.87804 3.84807C9.90951 3.83394 9.92937 3.83981 9.93764 3.86567C9.93974 3.87197 9.94318 3.87749 9.94748 3.88143C9.95179 3.88538 9.95674 3.88756 9.96164 3.88767C9.98777 3.88874 10.0111 3.88141 10.0316 3.86567C10.0384 3.86042 10.045 3.85617 10.0511 3.85326C10.0571 3.85035 10.0624 3.84885 10.0664 3.84887H10.1532C10.1596 3.84886 10.1657 3.84763 10.171 3.84527C10.1764 3.84291 10.1808 3.83948 10.184 3.83527C10.2128 3.79794 10.2474 3.79807 10.2876 3.83567C10.2924 3.84012 10.2982 3.84313 10.304 3.84421C10.3097 3.8453 10.3153 3.8444 10.3196 3.84167C10.3343 3.83181 10.3446 3.81541 10.3504 3.79247C10.3524 3.78489 10.3569 3.77816 10.3632 3.77332C10.3696 3.76847 10.3775 3.76579 10.3856 3.76567L11.0488 3.76167C11.0537 3.76157 11.0584 3.75963 11.0623 3.75616C11.0662 3.75269 11.0691 3.74789 11.0704 3.74247C11.0742 3.72781 11.0814 3.72527 11.092 3.73487C11.0952 3.73787 11.0993 3.73976 11.1035 3.74027C11.1078 3.74078 11.112 3.73986 11.1156 3.73767C11.1426 3.72167 11.1716 3.72007 11.2028 3.73287C11.2072 3.73465 11.2122 3.73466 11.2169 3.73291C11.2217 3.73116 11.2259 3.72775 11.2288 3.72327C11.2435 3.70061 11.2731 3.68914 11.3176 3.68887C11.5003 3.68807 11.608 3.68821 11.6408 3.68927C11.6902 3.69114 11.7155 3.66954 11.7168 3.62447C11.7169 3.62202 11.7175 3.6196 11.7186 3.61739C11.7196 3.61518 11.7211 3.61322 11.7229 3.61164C11.7247 3.61006 11.7268 3.60889 11.7291 3.6082C11.7313 3.60752 11.7337 3.60734 11.736 3.60767C11.7928 3.61567 11.8478 3.61207 11.9008 3.59687C11.9142 3.59287 11.927 3.59221 11.9392 3.59487C12.0502 3.61861 12.1598 3.61354 12.268 3.57967C12.2725 3.57823 12.2778 3.57836 12.2833 3.58005C12.2888 3.58174 12.2943 3.58492 12.2992 3.58927C12.3107 3.59941 12.3232 3.59781 12.3368 3.58447C12.3424 3.57903 12.3482 3.57462 12.3539 3.57153C12.3597 3.56843 12.3651 3.56671 12.37 3.56647C12.3956 3.56514 12.4202 3.56901 12.4436 3.57807C12.4552 3.58246 12.4682 3.58231 12.48 3.57767C12.5163 3.56301 12.5562 3.55914 12.5996 3.56607C12.6031 3.56653 12.6063 3.56814 12.609 3.5707C12.6117 3.57326 12.6138 3.57666 12.6148 3.58047C12.621 3.60367 12.6272 3.60327 12.6336 3.57927C12.6347 3.57558 12.6369 3.57233 12.6398 3.57001C12.6428 3.5677 12.6464 3.56646 12.65 3.56647L12.848 3.56487C12.8548 3.56486 12.8613 3.56332 12.8668 3.56043C12.8723 3.55754 12.8766 3.55341 12.8792 3.54847L12.8848 3.53847C12.8865 3.53545 12.8889 3.53292 12.8916 3.53116C12.8944 3.52941 12.8974 3.52848 12.9004 3.52847L13.1676 3.52807C13.1734 3.52807 13.1792 3.52658 13.1845 3.52372C13.1898 3.52087 13.1944 3.51674 13.198 3.51167C13.2199 3.48154 13.2403 3.47954 13.2592 3.50567C13.2633 3.5111 13.2682 3.51553 13.2735 3.51859C13.2788 3.52165 13.2843 3.52326 13.2896 3.52327L14.8188 3.52287C14.8217 3.52287 14.8245 3.52165 14.8266 3.51949C14.8287 3.51733 14.8299 3.51438 14.83 3.51127C14.8303 3.48487 14.836 3.48581 14.8472 3.51407C14.8488 3.51797 14.8513 3.52132 14.8546 3.52368C14.8579 3.52604 14.8618 3.52729 14.8656 3.52727H15.4312C15.4363 3.52728 15.4411 3.52931 15.4448 3.53294C15.4486 3.53657 15.4508 3.54155 15.4512 3.54687C15.4552 3.59034 15.4816 3.61167 15.5304 3.61087C15.6734 3.60847 15.8166 3.60767 15.96 3.60847C15.9739 3.60848 15.9865 3.61307 15.9952 3.62127L16.0532 3.67407C16.055 3.67564 16.0571 3.67682 16.0594 3.67753C16.0616 3.67824 16.064 3.67847 16.0665 3.67821C16.0689 3.67795 16.0713 3.6772 16.0735 3.67601C16.0757 3.67481 16.0776 3.6732 16.0792 3.67127C16.1043 3.64141 16.1348 3.63447 16.1708 3.65047C16.1783 3.65385 16.1856 3.65621 16.1921 3.65739C16.1986 3.65856 16.2042 3.65852 16.2084 3.65727C16.222 3.65354 16.2312 3.64554 16.236 3.63327C16.2387 3.62665 16.2423 3.62085 16.2463 3.61639C16.2504 3.61192 16.2548 3.60893 16.2592 3.60767C16.296 3.59701 16.3207 3.60301 16.3332 3.62567C16.3363 3.63131 16.3404 3.6361 16.345 3.63959C16.3497 3.64308 16.3549 3.64517 16.36 3.64567C16.4184 3.65167 16.6104 3.71207 16.6592 3.66647C16.6641 3.66216 16.6696 3.659 16.6754 3.65726C16.6812 3.65552 16.687 3.65525 16.6924 3.65647C16.829 3.68634 16.9675 3.69714 17.108 3.68887C17.1206 3.68834 17.1238 3.69367 17.1176 3.70487C17.0976 3.74087 17.108 3.75261 17.1488 3.74007C17.1538 3.73857 17.1594 3.7384 17.1653 3.73958C17.1711 3.74075 17.177 3.74325 17.1824 3.74687C17.1968 3.75647 17.2116 3.75514 17.2268 3.74287C17.232 3.7387 17.2377 3.73574 17.2435 3.73427C17.2493 3.7328 17.255 3.73287 17.26 3.73447C17.3936 3.77581 17.5298 3.80407 17.6684 3.81927C17.6868 3.82141 17.7252 3.83007 17.7836 3.84527C17.8223 3.85541 17.8622 3.85794 17.9032 3.85287C17.9069 3.85247 17.9109 3.85386 17.9145 3.85683C17.9181 3.8598 17.9212 3.86418 17.9232 3.86927L17.9268 3.87887C17.9279 3.88137 17.93 3.88354 17.9328 3.8851C17.9356 3.88666 17.9391 3.88756 17.9428 3.88767L18.1824 3.89447C18.1947 3.89474 18.207 3.89834 18.2192 3.90527C18.2718 3.93541 18.3288 3.94221 18.3904 3.92567C18.395 3.92455 18.3998 3.9254 18.4038 3.92802C18.4079 3.93065 18.4108 3.93484 18.412 3.93967C18.4155 3.95274 18.4224 3.96114 18.4328 3.96487C18.4455 3.96952 18.4552 3.97666 18.46 3.98487C18.472 4.00514 18.4875 4.00487 18.5064 3.98407C18.5096 3.98061 18.5141 3.97854 18.5188 3.97832C18.5235 3.97809 18.5281 3.97973 18.5316 3.98287C18.5508 4.00074 18.5704 3.99861 18.5904 3.97647C18.5948 3.97181 18.6001 3.96849 18.6057 3.96705C18.6113 3.9656 18.6168 3.9661 18.6212 3.96847L18.6836 4.00287C18.6955 4.00957 18.7083 4.01186 18.7196 4.00927C18.774 3.99754 18.8194 4.00967 18.8556 4.04567C18.8596 4.04956 18.8647 4.0525 18.8703 4.0543C18.876 4.0561 18.8822 4.0567 18.8884 4.05607L18.9816 4.04527C18.9859 4.04465 18.9911 4.04567 18.9968 4.04826C19.0024 4.05084 19.0084 4.0549 19.014 4.06007C19.0314 4.07554 19.05 4.07461 19.07 4.05727C19.0716 4.05596 19.0734 4.05502 19.0754 4.05454C19.0773 4.05406 19.0793 4.05406 19.0813 4.05454C19.0832 4.05501 19.085 4.05594 19.0864 4.05726C19.0879 4.05857 19.089 4.06022 19.0896 4.06207C19.122 4.15367 19.1984 4.13247 19.2712 4.12207C19.2833 4.12029 19.2963 4.12358 19.3076 4.13127C19.3436 4.15581 19.3836 4.16727 19.4276 4.16567C19.4358 4.1653 19.4434 4.1659 19.4497 4.16744C19.4561 4.16897 19.461 4.17139 19.464 4.17447L19.4872 4.19647C19.4918 4.20082 19.497 4.20413 19.5025 4.20615C19.5079 4.20816 19.5133 4.20882 19.5184 4.20807C19.5411 4.20487 19.56 4.21021 19.5752 4.22407C19.5794 4.22798 19.5845 4.23073 19.59 4.23206C19.5956 4.23339 19.6014 4.23326 19.6068 4.23167C19.6324 4.22421 19.6567 4.22754 19.6796 4.24167C19.6904 4.2481 19.703 4.25025 19.7148 4.24767C19.7386 4.24207 19.7551 4.24634 19.7644 4.26047C19.7689 4.26743 19.7736 4.27345 19.778 4.27789C19.7825 4.28234 19.7865 4.28503 19.7896 4.28567L19.8584 4.29967C19.8758 4.30314 19.8882 4.30674 19.8956 4.31047C19.9439 4.33607 19.9887 4.33167 20.03 4.29727C20.0317 4.29597 20.0336 4.29508 20.0356 4.29467C20.0377 4.29427 20.0398 4.29436 20.0418 4.29495C20.0438 4.29553 20.0457 4.29659 20.0473 4.29804C20.0488 4.29948 20.0501 4.30128 20.0508 4.30327C20.0714 4.35581 20.112 4.37661 20.1728 4.36567C20.1854 4.36335 20.1984 4.36577 20.2092 4.37247C20.2487 4.39701 20.2916 4.41007 20.338 4.41167C20.3435 4.41191 20.3491 4.41361 20.3543 4.41666C20.3595 4.41971 20.3642 4.42402 20.368 4.42927C20.3832 4.44981 20.4036 4.45607 20.4292 4.44807C20.4341 4.44652 20.4394 4.4468 20.4441 4.44886C20.4489 4.45092 20.4527 4.45462 20.4548 4.45927C20.4658 4.48114 20.4838 4.49207 20.5088 4.49207C20.5141 4.49207 20.5193 4.49358 20.524 4.49646C20.5287 4.49934 20.5327 4.50348 20.5356 4.50847C20.5656 4.56007 20.7208 4.57447 20.7728 4.57327C20.7922 4.57303 20.8107 4.57704 20.8252 4.58466C20.8397 4.59227 20.8494 4.60306 20.8528 4.61527C20.8622 4.64861 20.8554 4.66981 20.8324 4.67887C20.8267 4.68124 20.8217 4.68468 20.8177 4.68891C20.8138 4.69315 20.811 4.69806 20.8096 4.70327C20.8051 4.72274 20.796 4.74007 20.7824 4.75527C20.7775 4.76094 20.7739 4.76727 20.7723 4.77327C20.7708 4.77928 20.7712 4.78462 20.7736 4.78847L20.7916 4.82007Z" fill="#172B4D"/>
<path d="M21.3001 4.3584C22.5174 4.77893 23.6857 5.30133 24.8049 5.9256C23.3993 7.32373 22.2535 8.46773 21.3677 9.3576C21.3607 9.36453 21.3558 9.37467 21.3529 9.388L13.7477 16.9884C13.7461 16.99 13.7442 16.9913 13.7422 16.9921C13.7401 16.993 13.7379 16.9934 13.7357 16.9934C13.7334 16.9934 13.7312 16.993 13.7292 16.9921C13.7271 16.9913 13.7252 16.99 13.7237 16.9884L8.33206 11.5968C8.33081 11.5956 8.32982 11.5941 8.32915 11.5925C8.32847 11.5909 8.32813 11.5891 8.32812 11.5874C8.32813 11.5856 8.32847 11.5839 8.32915 11.5823C8.32982 11.5807 8.33081 11.5792 8.33206 11.578L10.8465 9.0712C10.8504 9.06745 10.8555 9.06532 10.8608 9.06524C10.8661 9.06517 10.8711 9.06716 10.8749 9.0708L13.7185 11.9076C13.7203 11.9094 13.7225 11.9108 13.7249 11.9118C13.7273 11.9128 13.7298 11.9132 13.7324 11.9132C13.735 11.9132 13.7376 11.9126 13.74 11.9116C13.7424 11.9106 13.7446 11.9091 13.7465 11.9072C15.2945 10.3573 16.8427 8.81253 18.3913 7.2728C18.3985 7.2656 18.4019 7.258 18.4017 7.25L18.4101 7.2484L21.3001 4.3584Z" fill="#24D164"/>
<path d="M24.8048 5.92578C25.902 13.973 21.52 21.7042 14.0236 24.8542C14.0153 24.8576 14.0065 24.8594 13.9976 24.8594C13.9887 24.8594 13.9798 24.8576 13.9716 24.8542C9.70438 23.0502 6.32038 19.7126 4.46838 15.4502C5.38332 14.5312 6.29972 13.6138 7.21758 12.6978C7.23385 12.6812 7.24745 12.672 7.25838 12.6702C8.37238 16.191 10.7704 19.083 13.9736 20.877C13.9802 20.8807 13.9876 20.8826 13.9951 20.8826C14.0026 20.8826 14.0099 20.8807 14.0164 20.877C18.2588 18.5238 20.9972 14.2578 21.3528 9.38818C21.3557 9.37485 21.3607 9.36471 21.3676 9.35778C22.2535 8.46791 23.3992 7.32391 24.8048 5.92578Z" fill="#1E3A8A"/>
</svg>
