<svg xmlns="http://www.w3.org/2000/svg" width="60.422" height="56.999" viewBox="0 0 60.422 56.999">
  <g id="Group_25996" data-name="Group 25996" transform="translate(-14531.578 21697)">
    <g id="Group_25998" data-name="Group 25998" transform="translate(14532.578 -21697)">
      <g id="responsive" transform="translate(3.422)">
        <path id="Path_26442" data-name="Path 26442" d="M48.7,266.668v8.521H2.435A2.442,2.442,0,0,1,0,272.755v-6.087Zm0,0" transform="translate(0 -236.233)" fill="#d0d7df"/>
        <path id="Path_26443" data-name="Path 26443" d="M48.7,15.826V30.435H0v-28A2.442,2.442,0,0,1,2.435,0H46.261A2.442,2.442,0,0,1,48.7,2.435Zm0,0" fill="#136afb"/>
        <path id="Path_26444" data-name="Path 26444" d="M128,341.332h13.391v6.087H128Zm0,0" transform="translate(-113.391 -302.376)" fill="#a4b0c0"/>
        <path id="Path_26445" data-name="Path 26445" d="M279.767,170.668h19.478a2.435,2.435,0,0,1,2.435,2.435v31.652a2.435,2.435,0,0,1-2.435,2.435H279.767a2.435,2.435,0,0,1-2.435-2.435V173.1A2.435,2.435,0,0,1,279.767,170.668Zm0,0" transform="translate(-245.68 -151.19)" fill="#fed049"/>
        <path id="Path_26446" data-name="Path 26446" d="M277.332,448v2.435a2.442,2.442,0,0,0,2.435,2.435h19.478a2.442,2.442,0,0,0,2.435-2.435V448Zm0,0" transform="translate(-245.68 -396.87)" fill="#d0d7df"/>
        <path id="Path_26447" data-name="Path 26447" d="M362.668,437.332h4.869v2.435h-4.869Zm0,0" transform="translate(-321.277 -387.419)" fill="#a4b0c0"/>
        <path id="Path_26448" data-name="Path 26448" d="M85.332,373.332h18.261v2.435H85.332Zm0,0" transform="translate(-75.593 -330.724)" fill="#768ba0"/>
        <path id="Path_26449" data-name="Path 26449" d="M34.435,38.087H32V35.652A3.652,3.652,0,0,1,35.652,32h2.435v2.435H35.652a1.218,1.218,0,0,0-1.218,1.218Zm0,0" transform="translate(-28.348 -28.348)" fill="#fed049"/>
        <path id="Path_26450" data-name="Path 26450" d="M32,106.668h2.435V109.1H32Zm0,0" transform="translate(-28.348 -94.494)" fill="#fed049"/>
        <g id="Group_25996-2" data-name="Group 25996" transform="translate(45.044 23.131)">
          <path id="Path_26451" data-name="Path 26451" d="M437.332,202.668h2.435V205.1h-2.435Zm0,0" transform="translate(-432.463 -202.668)" fill="#f6b445"/>
          <path id="Path_26452" data-name="Path 26452" d="M437.332,245.332h2.435v2.435h-2.435Zm0,0" transform="translate(-432.463 -240.463)" fill="#f6b445"/>
          <path id="Path_26453" data-name="Path 26453" d="M394.668,202.668H397.1V205.1h-2.435Zm0,0" transform="translate(-394.668 -202.668)" fill="#f6b445"/>
        </g>
        <path id="Path_26454" data-name="Path 26454" d="M226.689,38.421h-9.235l1.574-1.574-1.722-1.721-3.652,3.652a1.186,1.186,0,0,0,.009,1.713l-.008.008,3.652,3.652,1.721-1.722-1.575-1.573h9.235a1.217,1.217,0,0,1,1.217,1.218v4.87h2.435v-4.87a3.652,3.652,0,0,0-3.652-3.652Zm0,0" transform="translate(-188.95 -31.116)" fill="#f1f2f2"/>
        <path id="Path_26455" data-name="Path 26455" d="M112.951,209.506a1.226,1.226,0,0,0-.273-.386l.008-.007-3.652-3.652-1.722,1.721,1.576,1.573H99.652a1.218,1.218,0,0,1-1.218-1.218v-4.869H96v4.869a3.652,3.652,0,0,0,3.652,3.652h9.235l-1.574,1.574,1.721,1.721,3.652-3.652a1.217,1.217,0,0,0,.264-1.327Zm0,0" transform="translate(-73.668 -187.703)" fill="#f1f2f2"/>
      </g>
      <g id="Path_26461" data-name="Path 26461" transform="translate(-3 2.178)" fill="#454a6d">
        <path d="M 18.41065406799316 54.3213005065918 C 17.9764347076416 54.3213005065918 17.55761337280273 54.29102325439453 17.13108444213867 54.25728225708008 L 16.76026344299316 54.22796249389648 L 16.68176460266113 53.86436080932617 L 16.02832412719727 50.83790588378906 C 15.42361068725586 50.72240447998047 14.82858371734619 50.56341934204102 14.25216388702393 50.36331939697266 L 12.17649364471436 52.65409088134766 L 11.92700386047363 52.9294319152832 L 11.59140396118164 52.76998138427734 C 10.78582382202148 52.38724136352539 10.04024410247803 51.95993041992188 9.375353813171387 51.49993133544922 L 9.070034027099609 51.28870391845703 L 9.183954238891602 50.93533325195312 L 10.13204479217529 47.9944953918457 C 9.667609214782715 47.59291839599609 9.230389595031738 47.15564346313477 8.826943397521973 46.68921661376953 L 5.885973930358887 47.63735198974609 L 5.532614231109619 47.75127029418945 L 5.32137393951416 47.44595336914062 C 4.857724189758301 46.77580261230469 4.442354202270508 46.05105209350586 4.051514148712158 45.23030090332031 L 3.891623973846436 44.89452362060547 L 4.167213916778564 44.64481353759766 L 6.457988262176514 42.56914901733398 C 6.257755279541016 41.99240875244141 6.098750114440918 41.39740371704102 5.983352184295654 40.79297256469727 L 2.956933975219727 40.13954162597656 L 2.593324184417725 40.06103134155273 L 2.564004182815552 39.69020080566406 C 2.53028416633606 39.26348114013672 2.500004053115845 38.84452056884766 2.500004053115845 38.41066360473633 C 2.500004053115845 37.97678375244141 2.53028416633606 37.55782318115234 2.564004182815552 37.131103515625 L 2.593324184417725 36.76027297973633 L 2.956933975219727 36.6817626953125 L 5.983397006988525 36.02832412719727 C 6.098906993865967 35.42353439331055 6.257877349853516 34.82861709594727 6.457992553710938 34.25216674804688 L 4.167213916778564 32.17649078369141 L 3.891874074935913 31.927001953125 L 4.051323890686035 31.59140205383301 C 4.434073925018311 30.78581237792969 4.861373901367188 30.04023170471191 5.32137393951416 29.37536239624023 L 5.532614231109619 29.07004165649414 L 5.885973930358887 29.18396186828613 L 8.826812744140625 30.13205528259277 C 9.228788375854492 29.66716957092285 9.666251182556152 29.22994613647461 10.13283634185791 28.82674980163574 L 9.18476390838623 25.88597297668457 L 9.070843696594238 25.53260231018066 L 9.376173973083496 25.32136154174805 C 10.0463342666626 24.85772132873535 10.77108383178711 24.44235229492188 11.5918140411377 24.05152130126953 L 11.92759418487549 23.89163208007812 L 12.1773042678833 24.16722297668457 L 14.25296783447266 26.45798873901367 C 14.82969093322754 26.25776100158691 15.42470359802246 26.0987548828125 16.02914237976074 25.98335647583008 L 16.68257331848145 22.95694160461426 L 16.76106452941895 22.59339141845703 L 17.1318244934082 22.56402206420898 C 17.55768394470215 22.53028297424316 17.97594451904297 22.50000190734863 18.41065406799316 22.50000190734863 C 18.84464454650879 22.50000190734863 19.26355361938477 22.53028297424316 19.69021415710449 22.56402206420898 L 20.06103324890137 22.59334182739258 L 20.1395435333252 22.95694160461426 L 20.79298400878906 25.9833984375 C 21.39778518676758 26.09891700744629 21.99271583557129 26.25788497924805 22.56914520263672 26.45799446105957 L 24.64481353759766 24.16722297668457 L 24.89429473876953 23.89188194274902 L 25.22990417480469 24.05133247375488 C 26.03541374206543 24.43403244018555 26.78100395202637 24.86133193969727 27.44594383239746 25.32136154174805 L 27.75127410888672 25.53260231018066 L 27.63735389709473 25.88597297668457 L 26.68926239013672 28.82680892944336 C 27.15416717529297 29.22881317138672 27.59138679504395 29.66627883911133 27.99455451965332 30.13284492492676 L 30.93533325195312 29.18477249145508 L 31.28870391845703 29.07085227966309 L 31.49993324279785 29.37617301940918 C 31.96359443664551 30.04634284973145 32.37896347045898 30.77108192443848 32.76979446411133 31.59181213378906 L 32.92968368530273 31.92759132385254 L 32.65409469604492 32.17730331420898 L 30.36332130432129 34.25297164916992 C 30.56354904174805 34.82969284057617 30.7225513458252 35.42470169067383 30.83794975280762 36.02914047241211 L 33.86437225341797 36.68257141113281 L 34.22792434692383 36.76107406616211 L 34.25729370117188 37.13183212280273 C 34.29102325439453 37.5577507019043 34.32130432128906 37.97605133056641 34.32130432128906 38.41066360473633 C 34.32130432128906 38.84452056884766 34.29102325439453 39.26348114013672 34.25730514526367 39.69020080566406 L 34.22798538208008 40.06103134155273 L 33.86437225341797 40.13954162597656 L 30.83790969848633 40.7929801940918 C 30.72239112854004 41.39778900146484 30.56342506408691 41.99272155761719 30.36331558227539 42.56914520263672 L 32.65409469604492 44.64481353759766 L 32.92943572998047 44.89429092407227 L 32.76998519897461 45.22990036010742 C 32.38724517822266 46.03548049926758 31.95993423461914 46.78107070922852 31.49993324279785 47.44595336914062 L 31.28869438171387 47.75127029418945 L 30.93533325195312 47.63735198974609 L 27.99449729919434 46.68926239013672 C 27.59251976013184 47.15415191650391 27.15505790710449 47.59136962890625 26.6884708404541 47.99455261230469 L 27.63654327392578 50.93533325195312 L 27.75046348571777 51.28870391845703 L 27.44514465332031 51.49993133544922 C 26.77498435974121 51.96358108520508 26.05024337768555 52.37895202636719 25.22949409484863 52.76979064941406 L 24.89371490478516 52.92968368530273 L 24.64400482177734 52.65409088134766 L 22.56834030151367 50.36332321166992 C 21.99153709411621 50.56358337402344 21.3966236114502 50.72255325317383 20.79216384887695 50.83795547485352 L 20.13873481750488 53.86436080932617 L 20.06024360656738 54.22790145874023 L 19.68949317932129 54.25728225708008 C 19.26376342773438 54.29102325439453 18.84559440612793 54.3213005065918 18.41065406799316 54.3213005065918 Z M 18.41065406799316 30.79978179931641 C 14.21400451660156 30.79978179931641 10.79978370666504 34.21401214599609 10.79978370666504 38.41066360473633 C 10.79978370666504 42.60730361938477 14.21400451660156 46.02152252197266 18.41065406799316 46.02152252197266 C 22.60730361938477 46.02152252197266 26.02152442932129 42.60730361938477 26.02152442932129 38.41066360473633 C 26.02152442932129 34.21401214599609 22.60730361938477 30.79978179931641 18.41065406799316 30.79978179931641 Z" stroke="none"/>
        <path d="M 18.41065406799316 53.8213005065918 C 18.82917404174805 53.8213005065918 19.24039459228516 53.79130172729492 19.64999389648438 53.75884246826172 L 20.37429428100586 50.40419387817383 C 21.18457412719727 50.27199172973633 21.96564483642578 50.06191253662109 22.71347427368164 49.77885055541992 L 25.01452445983887 52.31836318969727 C 25.76396369934082 51.96148300170898 26.48421478271484 51.5567512512207 27.16066360473633 51.08875274658203 L 26.10949325561523 47.82818222045898 C 26.73808479309082 47.3139533996582 27.3139533996582 46.7389030456543 27.82818412780762 46.11030197143555 L 31.08875465393066 47.16147232055664 C 31.55675315856934 46.48503112792969 31.96229362487793 45.7647819519043 32.31836318969727 45.01533126831055 L 29.77884483337402 42.71428298950195 C 30.06191444396973 41.96646118164062 30.2719841003418 41.1845703125 30.40419387817383 40.37510299682617 L 33.75885391235352 39.65080261230469 C 33.79129409790039 39.24039077758789 33.82130432128906 38.82917404174805 33.82130432128906 38.41066360473633 C 33.82130432128906 37.99214172363281 33.79129409790039 37.58091354370117 33.75885391235352 37.17131042480469 L 30.40419387817383 36.44701385498047 C 30.2719841003418 35.63673400878906 30.06191444396973 34.85566329956055 29.77884483337402 34.10784149169922 L 32.31836318969727 31.80678176879883 C 31.96148490905762 31.05734252929688 31.55675315856934 30.33710289001465 31.08875465393066 29.66065216064453 L 27.82818412780762 30.71182250976562 C 27.3139533996582 30.08323287963867 26.73889350891113 29.50736236572266 26.11030387878418 28.99312210083008 L 27.16147422790527 25.73255157470703 C 26.48502349853516 25.26456260681152 25.76477432250977 24.85901260375977 25.01533317565918 24.50295257568359 L 22.71428489685059 27.04246139526367 C 21.96645355224609 26.75939178466797 21.1845645904541 26.5493221282959 20.3751049041748 26.41711235046387 L 19.65080451965332 23.06246185302734 C 19.24039459228516 23.0300121307373 18.82917404174805 23.00000190734863 18.41065406799316 23.00000190734863 C 17.99213409423828 23.00000190734863 17.58091354370117 23.0300121307373 17.17131423950195 23.06246185302734 L 16.44701385498047 26.41711235046387 C 15.63673400878906 26.5493221282959 14.85566425323486 26.75939178466797 14.10783386230469 27.04246139526367 L 11.80678367614746 24.50295257568359 C 11.05734443664551 24.85983276367188 10.3370943069458 25.26456260681152 9.66064453125 25.73255157470703 L 10.71181392669678 28.99312210083008 C 10.08322429656982 29.50736236572266 9.507353782653809 30.08241271972656 8.993124008178711 30.71101188659668 L 5.732553958892822 29.65984153747559 C 5.264554023742676 30.33628273010254 4.85901403427124 31.05653190612793 4.502943992614746 31.80597305297852 L 7.042464256286621 34.10703277587891 C 6.75939416885376 34.85484313964844 6.549314022064209 35.63673400878906 6.4171142578125 36.44620132446289 L 3.062453985214233 37.17050170898438 C 3.030014038085938 37.58091354370117 3.000004053115845 37.99214172363281 3.000004053115845 38.41066360473633 C 3.000004053115845 38.82917404174805 3.030014038085938 39.24039077758789 3.062453985214233 39.65080261230469 L 6.4171142578125 40.37510299682617 C 6.549314022064209 41.18538284301758 6.75939416885376 41.96646118164062 7.042464256286621 42.71428298950195 L 4.502943992614746 45.01533126831055 C 4.859824180603027 45.7647819519043 5.264554023742676 46.48503112792969 5.732553958892822 47.16147232055664 L 8.993124008178711 46.11030197143555 C 9.507353782653809 46.73808288574219 10.08241367340088 47.3139533996582 10.71100425720215 47.82818222045898 L 9.659833908081055 51.08875274658203 C 10.33628368377686 51.5567512512207 11.05653381347656 51.9622917175293 11.80597400665283 52.31836318969727 L 14.10702419281006 49.77885055541992 C 14.85485363006592 50.06191253662109 15.63673400878906 50.27199172973633 16.44620323181152 50.40419387817383 L 17.17050361633301 53.75884246826172 C 17.58091354370117 53.79130172729492 17.99213409423828 53.8213005065918 18.41065406799316 53.8213005065918 M 18.41065406799316 30.29978179931641 C 22.89028358459473 30.29978179931641 26.52152442932129 33.93102264404297 26.52152442932129 38.41066360473633 C 26.52152442932129 42.89028167724609 22.89028358459473 46.52152252197266 18.41065406799316 46.52152252197266 C 13.93102359771729 46.52152252197266 10.29978370666504 42.89028167724609 10.29978370666504 38.41066360473633 C 10.29978370666504 33.93102264404297 13.93102359771729 30.29978179931641 18.41065406799316 30.29978179931641 M 18.41065406799316 54.8213005065918 C 17.95820426940918 54.8213005065918 17.528564453125 54.790283203125 17.09165382385254 54.75573348999023 L 16.35003471374512 54.69707107543945 L 15.608473777771 51.26250076293945 C 15.20110702514648 51.17404556274414 14.79869079589844 51.06655502319336 14.40373420715332 50.94068908691406 L 12.04804420471191 53.54050064086914 L 11.37683391571045 53.22160339355469 C 10.54697418212891 52.82732391357422 9.777873992919922 52.38641357421875 9.090884208679199 51.9111213684082 L 8.480234146118164 51.48864364624023 L 9.555986404418945 48.15181732177734 C 9.24730110168457 47.87095642089844 8.951258659362793 47.57484436035156 8.669638633728027 47.2652702331543 L 5.332664012908936 48.34107208251953 L 4.910183906555176 47.73043060302734 C 4.431114196777344 47.03798294067383 4.00257396697998 46.29050064086914 3.600084066390991 45.44526290893555 L 3.280303955078125 44.77372360229492 L 5.880606174468994 42.4175910949707 C 5.754669189453125 42.02248001098633 5.647162437438965 41.62008285522461 5.558743000030518 41.21281814575195 L 2.124184131622314 40.47126388549805 L 2.065564155578613 39.7296028137207 C 2.031013965606689 39.29251098632812 2.000004053115845 38.86274337768555 2.000004053115845 38.41066360473633 C 2.000004053115845 37.95856094360352 2.031013965606689 37.52879333496094 2.065564155578613 37.09170150756836 L 2.124184131622314 36.35004043579102 L 5.558804988861084 35.60847091674805 C 5.64725923538208 35.20109176635742 5.754756450653076 34.79868698120117 5.880620956420898 34.40373611450195 L 3.28080415725708 32.04804229736328 L 3.599704027175903 31.37683296203613 C 3.993993997573853 30.54696273803711 4.43489408493042 29.77786254882812 4.910183906555176 29.09088134765625 L 5.332664012908936 28.4802417755127 L 8.669495582580566 29.55599594116211 C 8.950634002685547 29.24703788757324 9.246975898742676 28.95087623596191 9.556735992431641 28.6693000793457 L 8.481034278869629 25.3326530456543 L 9.091693878173828 24.91017150878906 C 9.784164428710938 24.43111228942871 10.53163433074951 24.00258255004883 11.37684440612793 23.6000919342041 L 12.04839420318604 23.28030204772949 L 14.40452766418457 25.88060760498047 C 14.79962730407715 25.75467300415039 15.2020320892334 25.64716529846191 15.60929679870605 25.55874252319336 L 16.3508243560791 22.12433242797852 L 17.09233474731445 22.06558227539062 C 17.52858352661133 22.0310230255127 17.95767402648926 22.00000190734863 18.41065406799316 22.00000190734863 C 18.86286354064941 22.00000190734863 19.29259490966797 22.0310230255127 19.72962379455566 22.06557273864746 L 20.47127342224121 22.12421226501465 L 21.21283531188965 25.55880355834961 C 21.62021636962891 25.64726257324219 22.02263259887695 25.75476264953613 22.41757583618164 25.88062477111816 L 24.77325439453125 23.28082275390625 L 25.4444637298584 23.59971237182617 C 26.27426338195801 23.99395179748535 27.04336357116699 24.43485260009766 27.73042488098145 24.91017150878906 L 28.34108352661133 25.3326530456543 L 27.26531600952148 28.66950416564941 C 27.57424163818359 28.95061683654785 27.87047958374023 29.24703598022461 28.15201377868652 29.55674171447754 L 31.48864364624023 28.48105239868164 L 31.91112327575684 29.09170150756836 C 32.39020538330078 29.7841625213623 32.81874465942383 30.53164291381836 33.22122573852539 31.3768424987793 L 33.541015625 32.04839324951172 L 30.94070053100586 34.40453338623047 C 31.06663513183594 34.79962921142578 31.17414093017578 35.20203018188477 31.26256561279297 35.60929489135742 L 34.69700241088867 36.35082244873047 L 34.75573348999023 37.09236145019531 C 34.790283203125 37.52866363525391 34.82130432128906 37.95779037475586 34.82130432128906 38.41066360473633 C 34.82130432128906 38.86274337768555 34.7902946472168 39.29251098632812 34.75574493408203 39.7296028137207 L 34.69712448120117 40.47126388549805 L 31.26250267028809 41.21283340454102 C 31.17404556274414 41.62022018432617 31.0665454864502 42.02263641357422 30.9406852722168 42.41757583618164 L 33.54050445556641 44.77326202392578 L 33.22160339355469 45.44447326660156 C 32.82732391357422 46.27433395385742 32.38641357421875 47.04344177246094 31.91112327575684 47.73043060302734 L 31.48864364624023 48.34107208251953 L 28.15181350708008 47.26531600952148 C 27.87067031860352 47.57427978515625 27.57433319091797 47.87043762207031 27.26457405090332 48.15201187133789 L 28.34026336669922 51.48864364624023 L 27.7296142578125 51.9111213684082 C 27.03716468811035 52.39019393920898 26.2896842956543 52.81873321533203 25.4444637298584 53.22122192382812 L 24.77291488647461 53.54101181030273 L 22.41678047180176 50.94070434570312 C 22.0217170715332 51.06662368774414 21.61921119689941 51.17415618896484 21.21201133728027 51.26256561279297 L 20.47049331665039 54.69695281982422 L 19.72899436950684 54.75571060180664 C 19.2928638458252 54.790283203125 18.86386489868164 54.8213005065918 18.41065406799316 54.8213005065918 Z M 18.41065406799316 31.29978179931641 C 14.48970413208008 31.29978179931641 11.29978370666504 34.48971176147461 11.29978370666504 38.41066360473633 C 11.29978370666504 42.33160400390625 14.48970413208008 45.52152252197266 18.41065406799316 45.52152252197266 C 22.33160400390625 45.52152252197266 25.52152442932129 42.33160400390625 25.52152442932129 38.41066360473633 C 25.52152442932129 34.48971176147461 22.33160400390625 31.29978179931641 18.41065406799316 31.29978179931641 Z" stroke="none" fill="#fff"/>
      </g>
    </g>
  </g>
</svg>
