  <svg xmlns="http://www.w3.org/2000/svg" width="70" height="56" viewBox="0 0 70 56">
    <g id="Group_25463" data-name="Group 25463" transform="translate(-2.455 -7)">
      <g id="shake" transform="translate(2.455 6.829)">
        <path id="Path_20114" data-name="Path 20114" d="M2,26H17.4V51.2H2Z" transform="translate(-2 -9.898)" fill="#136afb" />
        <path id="Path_20115" data-name="Path 20115" d="M23,26h8.4V51.2H23Z" transform="translate(-7.6 -9.898)" fill="#ccc" />
        <path id="Path_20117" data-name="Path 20117" d="M41,10H57.8V24.726H41Z" transform="translate(-0.4 -7.755)" fill="#e2e7f6" />
        <path id="Path_20118" data-name="Path 20118" d="M41,24.2V22.8l2.453-1.635a6.936,6.936,0,0,1,7.694,0l.7.47A6.943,6.943,0,0,0,55.7,22.8h2.1v1.4Z" transform="translate(-0.4 -9.234)" fill="#ff4155" />
        <path id="Path_20119" data-name="Path 20119" d="M51.5,47.6a3.5,3.5,0,1,1,0-7,3.5,3.5,0,1,1,0-7A3.5,3.5,0,0,1,48.7,28H45.2A8.4,8.4,0,0,1,41,35.28V61.6a8.4,8.4,0,0,0,16.8,0v-7H51.5a3.5,3.5,0,0,1,0-7Z" transform="translate(-0.4 -13.829)" fill="#fc3755" />
        <g id="Group_19637" data-name="Group 19637" transform="translate(47.6 16.654)">
          <g id="Group_19636" data-name="Group 19636" transform="translate(0 7)">
            <rect
              id="Rectangle_23238"
              data-name="Rectangle 23238"
              width="7.7"
              height="16.8"
              rx="2.5"
              transform="translate(16.8 14) rotate(90)"
              fill="#efc7b0"
            />
            <rect
              id="Rectangle_23234"
              data-name="Rectangle 23234"
              width="8"
              height="17"
              rx="2.5"
              transform="translate(16.945 13.517) rotate(90)"
              fill="#fddac6"
            />
            <rect
              id="Rectangle_23237"
              data-name="Rectangle 23237"
              width="7.7"
              height="19.6"
              rx="2.5"
              transform="translate(19.6 7) rotate(90)"
              fill="#efc7b0"
            />
            <rect
              id="Rectangle_23235"
              data-name="Rectangle 23235"
              width="6"
              height="20"
              rx="2.5"
              transform="translate(19.945 7.517) rotate(90)"
              fill="#fddac6"
            />
            <path id="Path_20128" data-name="Path 20128" d="M58.6,32h6.3a3.867,3.867,0,0,1,0,7.7H49.5a3.868,3.868,0,0,1,0-7.7h2.1" transform="translate(-46 -32)" fill="#efc7b0" />
            <path id="Path_20121" data-name="Path 20121" d="M58.6,32h6.3a3.5,3.5,0,1,1,0,7H49.5a3.5,3.5,0,0,1,0-7h2.1" transform="translate(-46 -32)" fill="#fddac6" />
          </g>
          <g id="Group_19639" data-name="Group 19639" transform="translate(0)">
            <path id="Path_20116" data-name="Path 20116" d="M51.6,34.278H49.5A3.73,3.73,0,0,1,46,30.354,4.225,4.225,0,0,1,46.7,28h4.9Z" transform="translate(-46 -26.6)" fill="#efc7b0" />
            <path id="Path_20120" data-name="Path 20120" d="M55,27h3.5A3.681,3.681,0,0,1,62,30.839a3.681,3.681,0,0,1-3.5,3.839H55" transform="translate(-42.4 -27)" fill="#efc7b0" />
          </g>
          <g id="Group_19638" data-name="Group 19638" transform="translate(0)">
            <path id="Path_20116-2" data-name="Path 20116" d="M51.6,33.6H49.5A3.5,3.5,0,0,1,46.7,28h4.9Z" transform="translate(-46 -26.6)" fill="#fddac6" />
            <path id="Path_20120-2" data-name="Path 20120" d="M55,27h3.5a3.5,3.5,0,1,1,0,7H55" transform="translate(-42.4 -27)" fill="#fddac6" />
          </g>
        </g>
        <rect
          id="Rectangle_23236"
          data-name="Rectangle 23236"
          width="22"
          height="6"
          rx="2"
          transform="translate(38.545 0.171)"
          fill="#c8cded"
        />
        <path id="Path_20122" data-name="Path 20122" d="M44,49h2.8v2.8H44Z" transform="translate(0.8 -5.43)" fill="#ff8290" />
        <path id="Path_20123" data-name="Path 20123" d="M48,52h2.8v2.8H48Z" transform="translate(2.4 -4.23)" fill="#ff8290" />
        <path id="Path_20127" data-name="Path 20127" d="M54.972,30.891v5.09A4.187,4.187,0,0,0,59.129,39.8a3.738,3.738,0,0,0,3.653-3.818V29.109A5.981,5.981,0,0,0,56.938,23C48.092,22.964,18.527,32.048,54.972,30.891Z" transform="translate(-2.582 -9.389)" fill="#efc7b0" />
        <path id="Path_20124" data-name="Path 20124" d="M45.8,37.28A8.4,8.4,0,0,0,50,30h8.4v4.9a3.5,3.5,0,1,0,7,0V28.6A5.6,5.6,0,0,0,59.8,23H48.6a11.2,11.2,0,0,0-10.386,7L29,30V49.6h9.215A11.22,11.22,0,0,0,45.8,56.247Z" transform="translate(-5.2 -11.087)" fill="#fddac6" />
        <path id="Path_20125" data-name="Path 20125" d="M23,40.238a33.786,33.786,0,0,0,8.4-7.721V26H23Z" transform="translate(-7.6 -8.821)" fill="#e2e7f6" />
        <path id="Path_20126" data-name="Path 20126" d="M12,43.681c9.8,3.464,6.661,2.192,15.4-3.443V26H12Z" transform="translate(-12 -9.284)" fill="rgba(255,255,255,0.2)" />
      </g>
    </g>
  </svg>