  <svg
    id="Layer_1"
    version="1.1"
    xmlns="http://www.w3.org/2000/svg"
    x="0"
    y="0"
    viewBox="0 0 60 60"
    style="enable-background:new 0 0 60 60"
    xml:space="preserve"
  ><style>.st1{fill:#fff}.st2{fill:#515151}</style><g id="video" transform="translate(1705 -353)"><g id="Group_25462" transform="translate(-1709.808 353.298)"><g id="XMLID_8821_" transform="translate(24.533 5.6)"><g id="XMLID_8827_"><g id="XMLID_8854_"><g id="XMLID_8855_"><g id="XMLID_8856_"><path id="XMLID_8861_" d="M13.9-5.9h-24.3c-1.5 0-2.8 1.7-2.8 3.7v52.5c0 2.1 1.3 3.7 2.9 3.7H14c1.6 0 2.8-1.7 2.8-3.7V-2.2c-.1-2-1.3-3.7-2.9-3.7z" style="fill:#666" /><path id="XMLID_8860_" class="st1" d="M-11.2.3h25.9v44.6h-25.9V.3z" /><g id="Group_19419" transform="translate(6.551 2.208)"><path id="XMLID_8859_" class="st2" d="M.8-6h-8.7c-.5 0-.8.4-.8.7s.4.9.7.9H.8c.5 0 .8-.4.8-.7.1-.6-.3-.9-.8-.9z" /><circle id="Ellipse_1122" class="st2" cx="-12.8" cy="-5.2" r=".8" /><circle id="Ellipse_1123" class="st2" cx="-3.5" cy="47.4" r="2.7" /></g></g></g></g></g></g><g id="Group_19421" transform="translate(38.318 27.051)"><path id="Rectangle_23154" d="M-10.4-7.3h26.7c2.1 0 3.7 1.7 3.7 3.7V21c0 2.1-1.7 3.7-3.7 3.7h-26.7c-2.1 0-3.7-1.7-3.7-3.7V-3.5c0-2.1 1.6-3.8 3.7-3.8z" style="fill:#136afb" /><g id="Group_19420" transform="translate(4.941 7.961)"><path id="Rectangle-path" class="st1" d="M-12.6-7.8H1.1c1 0 1.9.8 1.9 1.9V7.8c0 1-.8 1.9-1.9 1.9h-13.7c-1 0-1.9-.8-1.9-1.9V-5.9c0-1 .9-1.9 1.9-1.9z" /><path id="Shape" d="M9.8-2.8v9c0 .3-.2.6-.5.7-.3.2-.6.2-.9 0l-6-2.6V-1l6-2.6c.3-.1.7-.1.9 0 .4.1.5.4.5.8z" style="fill:#e6f3ff" /></g></g></g></g>
  </svg>